<svg width="20" height="20" viewBox="0 0 20 20" fill="none" xmlns="http://www.w3.org/2000/svg">
    <path d="M2.14991 17.0586C1.40314 14.183 1.10756 10.6607 1.0256 8.74863C1.00195 8.19685 1.44772 7.75 2 7.75H18C18.5523 7.75 18.998 8.19685 18.9744 8.74863C18.8924 10.6607 18.5969 14.183 17.8501 17.0586C17.6501 17.8287 17.0868 18.4292 16.3043 18.5736C15.133 18.7896 13.1135 19 10 19C6.88651 19 4.86695 18.7896 3.69568 18.5736C2.91323 18.4292 2.3499 17.8287 2.14991 17.0586Z" fill="#F2F3F5"/>
    <path d="M2.14991 17.0586C1.40314 14.183 1.10756 10.6607 1.0256 8.74863C1.00195 8.19685 1.44772 7.75 2 7.75H18C18.5523 7.75 18.998 8.19685 18.9744 8.74863C18.8924 10.6607 18.5969 14.183 17.8501 17.0586C17.6501 17.8287 17.0868 18.4292 16.3043 18.5736C15.133 18.7896 13.1135 19 10 19C6.88651 19 4.86695 18.7896 3.69568 18.5736C2.91323 18.4292 2.3499 17.8287 2.14991 17.0586Z" stroke="#353949" stroke-width="1.5" stroke-linecap="round" stroke-linejoin="round"/>
    <path d="M4.75 7.75V6C4.75 3.23857 6.98858 1 9.75 1H10.25C13.0114 1 15.25 3.23858 15.25 6V7.75" stroke="#353949" stroke-width="1.5" stroke-linecap="round" stroke-linejoin="round"/>
    <path d="M7 12.25V14.5M13 12.25V14.5" stroke="#353949" stroke-width="1.5" stroke-linecap="round" stroke-linejoin="round"/>
</svg>    