<svg width="22" height="14" viewBox="0 0 22 14" fill="none" xmlns="http://www.w3.org/2000/svg">
<path fill-rule="evenodd" clip-rule="evenodd" d="M10.6668 11.0302C10.6467 12.0054 9.84326 12.7817 8.86787 12.7683C7.89247 12.755 7.11065 11.957 7.11723 10.9815C7.12381 10.0061 7.91632 9.21871 8.89181 9.21851C9.36744 9.22334 9.82166 9.41694 10.1545 9.7567C10.4874 10.0965 10.6717 10.5545 10.6668 11.0302V11.0302Z" stroke="#0093A2" stroke-width="1.5" stroke-linecap="round" stroke-linejoin="round"/>
<path fill-rule="evenodd" clip-rule="evenodd" d="M19.1199 11.0302C19.0998 12.0054 18.2964 12.7817 17.321 12.7683C16.3456 12.755 15.5638 11.957 15.5704 10.9815C15.5769 10.0061 16.3694 9.21871 17.3449 9.21851C17.8206 9.22334 18.2748 9.41694 18.6077 9.7567C18.9406 10.0965 19.1248 10.5545 19.1199 11.0302V11.0302Z" stroke="#0093A2" stroke-width="1.5" stroke-linecap="round" stroke-linejoin="round"/>
<path d="M15.3617 11.7802C15.7759 11.7802 16.1117 11.4444 16.1117 11.0302C16.1117 10.616 15.7759 10.2802 15.3617 10.2802V11.7802ZM10.6667 10.2802C10.2525 10.2802 9.91667 10.616 9.91667 11.0302C9.91667 11.4444 10.2525 11.7802 10.6667 11.7802V10.2802ZM14.615 11.0302C14.615 11.4444 14.9508 11.7802 15.365 11.7802C15.7792 11.7802 16.115 11.4444 16.115 11.0302H14.615ZM16.115 6.641C16.115 6.22679 15.7792 5.891 15.365 5.891C14.9508 5.891 14.615 6.22679 14.615 6.641H16.115ZM15.365 10.2802C14.9508 10.2802 14.615 10.616 14.615 11.0302C14.615 11.4444 14.9508 11.7802 15.365 11.7802V10.2802ZM15.5742 11.7802C15.9884 11.7802 16.3242 11.4444 16.3242 11.0302C16.3242 10.616 15.9884 10.2802 15.5742 10.2802V11.7802ZM19.1083 10.2803C18.6942 10.2891 18.3656 10.6319 18.3743 11.046C18.3831 11.4601 18.7259 11.7888 19.14 11.78L19.1083 10.2803ZM21 9.07934L21.7499 9.0658C21.7492 9.02616 21.7453 8.98664 21.7383 8.94762L21 9.07934ZM21.3033 6.50928C21.2306 6.10151 20.8411 5.82991 20.4333 5.90266C20.0255 5.97541 19.7539 6.36495 19.8267 6.77273L21.3033 6.50928ZM15.3617 1.98934C14.9475 1.98934 14.6117 2.32512 14.6117 2.73934C14.6117 3.15355 14.9475 3.48934 15.3617 3.48934V1.98934ZM18.3375 2.73934V3.48935L18.3422 3.48932L18.3375 2.73934ZM19.6955 3.31173L19.1553 3.83204L19.6955 3.31173ZM20.2167 4.69017L19.4674 4.65739C19.465 4.7125 19.4686 4.7677 19.4783 4.822L20.2167 4.69017ZM19.8267 6.77284C19.8995 7.1806 20.2891 7.45214 20.6968 7.37933C21.1046 7.30652 21.3761 6.91694 21.3033 6.50917L19.8267 6.77284ZM16.1117 2.73934C16.1117 2.32512 15.7759 1.98934 15.3617 1.98934C14.9475 1.98934 14.6117 2.32512 14.6117 2.73934H16.1117ZM14.6117 6.64101C14.6117 7.05522 14.9475 7.39101 15.3617 7.39101C15.7759 7.39101 16.1117 7.05522 16.1117 6.64101H14.6117ZM14.6117 2.73934C14.6117 3.15355 14.9475 3.48934 15.3617 3.48934C15.7759 3.48934 16.1117 3.15355 16.1117 2.73934H14.6117ZM15.3617 2.07267L14.6117 2.06775V2.07267H15.3617ZM14.475 1.17517L14.4792 0.425171H14.475V1.17517ZM6.4875 1.17517V0.425163L6.484 0.425179L6.4875 1.17517ZM5.85821 1.43928L5.32541 0.911431V0.911431L5.85821 1.43928ZM5.6 2.071H6.35001L6.34999 2.06749L5.6 2.071ZM5.6 10.1335L6.35 10.137V10.1335H5.6ZM5.85821 10.7652L5.32541 11.2931H5.32541L5.85821 10.7652ZM6.4875 11.0293L6.484 11.7793H6.4875V11.0293ZM7.11333 11.7793C7.52755 11.7793 7.86333 11.4436 7.86333 11.0293C7.86333 10.6151 7.52755 10.2793 7.11333 10.2793V11.7793ZM15.3633 5.89017C14.9491 5.89017 14.6133 6.22596 14.6133 6.64017C14.6133 7.05438 14.9491 7.39017 15.3633 7.39017V5.89017ZM20.5667 7.39017C20.9809 7.39017 21.3167 7.05438 21.3167 6.64017C21.3167 6.22596 20.9809 5.89017 20.5667 5.89017V7.39017ZM1 2.09184C0.585786 2.09184 0.25 2.42762 0.25 2.84184C0.25 3.25605 0.585786 3.59184 1 3.59184V2.09184ZM3.60833 3.59184C4.02255 3.59184 4.35833 3.25605 4.35833 2.84184C4.35833 2.42762 4.02255 2.09184 3.60833 2.09184V3.59184ZM1.83333 4.59184C1.41912 4.59184 1.08333 4.92762 1.08333 5.34184C1.08333 5.75605 1.41912 6.09184 1.83333 6.09184V4.59184ZM3.5 6.09184C3.91421 6.09184 4.25 5.75605 4.25 5.34184C4.25 4.92762 3.91421 4.59184 3.5 4.59184V6.09184ZM2.34167 7.09184C1.92745 7.09184 1.59167 7.42762 1.59167 7.84184C1.59167 8.25605 1.92745 8.59184 2.34167 8.59184V7.09184ZM3.5 8.59184C3.91421 8.59184 4.25 8.25605 4.25 7.84184C4.25 7.42762 3.91421 7.09184 3.5 7.09184V8.59184ZM15.3617 10.2802H10.6667V11.7802H15.3617V10.2802ZM16.115 11.0302V6.641H14.615V11.0302H16.115ZM15.365 11.7802H15.5742V10.2802H15.365V11.7802ZM19.14 11.78C20.6092 11.7489 21.7764 10.5351 21.7499 9.0658L20.2501 9.09288C20.2617 9.73569 19.7511 10.2667 19.1083 10.2803L19.14 11.78ZM21.7383 8.94762L21.3033 6.50928L19.8267 6.77273L20.2617 9.21106L21.7383 8.94762ZM15.3617 3.48934H18.3375V1.98934H15.3617V3.48934ZM18.3422 3.48932C18.6488 3.48739 18.9427 3.61127 19.1553 3.83204L20.2356 2.79141C19.738 2.27475 19.0501 1.98483 18.3328 1.98935L18.3422 3.48932ZM19.1553 3.83204C19.368 4.05281 19.4808 4.35115 19.4674 4.65739L20.9659 4.72295C20.9973 4.00626 20.7333 3.30807 20.2356 2.79141L19.1553 3.83204ZM19.4783 4.822L19.8267 6.77284L21.3033 6.50917L20.955 4.55834L19.4783 4.822ZM14.6117 2.73934V6.64101H16.1117V2.73934H14.6117ZM16.1117 2.73934V2.07267H14.6117V2.73934H16.1117ZM16.1117 2.07759C16.1145 1.64192 15.9441 1.22299 15.6379 0.91306L14.5708 1.96726C14.5972 1.99401 14.6119 2.03016 14.6117 2.06775L16.1117 2.07759ZM15.6379 0.91306C15.3317 0.603128 14.9149 0.427616 14.4792 0.425183L14.4708 1.92516C14.5084 1.92537 14.5444 1.94051 14.5708 1.96726L15.6379 0.91306ZM14.475 0.425171H6.4875V1.92517H14.475V0.425171ZM6.484 0.425179C6.0486 0.427209 5.63185 0.602119 5.32541 0.911431L6.39102 1.96712C6.41746 1.94043 6.45342 1.92534 6.491 1.92516L6.484 0.425179ZM5.32541 0.911431C5.01898 1.22074 4.84797 1.63912 4.85001 2.07452L6.34999 2.06749C6.34982 2.02992 6.36457 1.99382 6.39102 1.96712L5.32541 0.911431ZM4.85 2.071V10.1335H6.35V2.071H4.85ZM4.85001 10.13C4.84797 10.5654 5.01898 10.9838 5.32541 11.2931L6.39102 10.2374C6.36457 10.2107 6.34982 10.1746 6.34999 10.137L4.85001 10.13ZM5.32541 11.2931C5.63185 11.6024 6.0486 11.7773 6.484 11.7793L6.491 10.2793C6.45342 10.2792 6.41746 10.2641 6.39102 10.2374L5.32541 11.2931ZM6.4875 11.7793H7.11333V10.2793H6.4875V11.7793ZM15.3633 7.39017H20.5667V5.89017H15.3633V7.39017ZM1 3.59184H3.60833V2.09184H1V3.59184ZM1.83333 6.09184H3.5V4.59184H1.83333V6.09184ZM2.34167 8.59184H3.5V7.09184H2.34167V8.59184Z" fill="#0093A2"/>
</svg>
