<svg width="14" height="12" viewBox="0 0 14 12" fill="none" xmlns="http://www.w3.org/2000/svg">
<path d="M13 6.01027C13 7.07142 10.3137 10.8103 7 10.8103C3.68629 10.8103 1 7.07142 1 6.01027C1 4.94911 3.68629 1.21027 7 1.21027C10.3137 1.21027 13 4.94911 13 6.01027Z" fill="white"/>
<path d="M13 6.01027C13 7.07142 10.3137 10.8103 7 10.8103C3.68629 10.8103 1 7.07142 1 6.01027C1 4.94911 3.68629 1.21027 7 1.21027C10.3137 1.21027 13 4.94911 13 6.01027Z" stroke="#505567" stroke-width="1.5" stroke-linejoin="round"/>
<path d="M6.99922 7.81027C7.99333 7.81027 8.79922 7.00438 8.79922 6.01027C8.79922 5.01615 7.99333 4.21027 6.99922 4.21027C6.00511 4.21027 5.19922 5.01615 5.19922 6.01027C5.19922 7.00438 6.00511 7.81027 6.99922 7.81027Z" fill="white" stroke="#505567" stroke-width="1.5" stroke-linecap="round" stroke-linejoin="round"/>
</svg>
