<svg width="20" height="20" viewBox="0 0 20 20" fill="none" xmlns="http://www.w3.org/2000/svg">
<path fill-rule="evenodd" clip-rule="evenodd" d="M10 19.0017V19.0017C5.029 19.0017 1 14.9727 1 10.0017V10.0017C1 5.03071 5.029 1.00171 10 1.00171V1.00171C14.971 1.00171 19 5.03071 19 10.0017V10.0017C19 14.9727 14.971 19.0017 10 19.0017Z" stroke="#7D818E" stroke-width="1.5" stroke-linecap="round" stroke-linejoin="round"/>
<path d="M10 15.0017V10.0017H9" stroke="#7D818E" stroke-width="1.5" stroke-linecap="round" stroke-linejoin="round"/>
<path d="M9.749 6.00171C9.611 6.00171 9.499 6.11371 9.5 6.25171C9.5 6.38971 9.612 6.50171 9.75 6.50171C9.888 6.50171 10 6.38971 10 6.25171C10 6.11371 9.888 6.00171 9.749 6.00171" stroke="#7D818E" stroke-width="1.5" stroke-linecap="round" stroke-linejoin="round"/>
</svg>
