<svg width="16" height="20" viewBox="0 0 16 20" fill="none" xmlns="http://www.w3.org/2000/svg">
<path d="M8.57939 18.654C10.2569 17.2446 15.0003 12.8227 15.0003 7.87975C15.0003 4.01368 11.8662 0.879608 8.00014 0.879608C4.13407 0.879608 1 4.01368 1 7.87975C1 12.8227 5.74337 17.2446 7.4209 18.654C7.76046 18.9392 8.23983 18.9392 8.57939 18.654Z" stroke="#505567" stroke-width="1.5" stroke-linecap="round" stroke-linejoin="round"/>
<path d="M7.99995 10.3358C9.58342 10.3358 10.8671 9.05218 10.8671 7.46871C10.8671 5.88524 9.58342 4.60158 7.99995 4.60158C6.41647 4.60158 5.13281 5.88524 5.13281 7.46871C5.13281 9.05218 6.41647 10.3358 7.99995 10.3358Z" stroke="#505567" stroke-width="1.5" stroke-linecap="round" stroke-linejoin="round"/>
</svg>
