<svg width="320" height="472" viewBox="0 0 320 472" fill="none" xmlns="http://www.w3.org/2000/svg">
<path d="M170.752 49.0989C172.358 47.6398 174.053 46.2717 175.826 44.9912C181.282 41.0556 187.261 38.0215 193.028 34.5954C193.092 34.6037 193.155 34.6103 193.218 34.6202C193.263 34.6268 193.304 34.6252 193.34 34.6169C193.41 34.6632 193.478 34.7112 193.547 34.7592C187.593 41.7868 180.222 48.2635 170.752 49.0989ZM169.402 48.9103C171.134 44.5793 173.7 40.7694 177.636 38.0778C181.945 35.1314 187.242 33.894 192.404 34.511C184.39 38.1605 176.016 42.7297 169.402 48.9103ZM168.931 48.1626C168.453 42.6189 169.976 37.2059 172.946 32.4828C175.687 28.1237 179.406 24.5288 183.35 21.2599C181.922 23.3427 180.63 25.5346 179.277 27.6638C177.758 30.0576 176.238 32.4497 174.744 34.8584C172.162 39.024 169.851 43.3154 168.931 48.1626ZM184.031 20.699C183.644 26.2774 181.98 31.5332 179.242 36.4218C179.234 36.4367 179.229 36.4499 179.224 36.4632C178.585 36.8122 177.965 37.196 177.364 37.6129C173.875 40.0431 170.881 43.676 169.45 47.7606C170.315 42.9729 172.871 38.6402 175.412 34.5574C178.271 29.9666 181.403 25.4635 184.008 20.7189C184.017 20.7123 184.023 20.7057 184.031 20.699ZM162.442 43.7505C161.766 36.6683 160.178 29.8144 157.731 23.1309C156.434 19.5857 154.816 16.1728 152.92 12.9105C152.922 12.9022 152.923 12.8956 152.927 12.8873C158.24 15.6219 161.356 20.5634 162.906 26.2758C163.758 29.4223 164.347 32.7707 164.117 36.038C163.931 38.6733 163.227 41.2326 162.442 43.7505ZM153.709 29.5067C151.721 24.2724 151.444 18.5037 152.87 13.1007C157.933 22.5006 160.479 32.9973 161.445 43.6099C158.897 38.8967 155.613 34.5193 153.709 29.5067ZM144.289 35.5847C144.526 35.6079 144.763 35.6343 144.998 35.6658C148.986 38.5112 152.414 42.1689 155.18 46.1972C156.426 48.0104 157.483 49.8765 158.394 51.8037C151.466 48.8789 146.063 42.9514 144.289 35.5847ZM158.694 49.8748C155.516 44.1558 150.796 39.2639 145.353 35.7187C152.49 36.8701 157.966 42.6983 158.694 49.8748ZM193.952 34.6649C193.964 34.5888 193.943 34.511 193.858 34.4614C193.767 34.4052 193.675 34.3506 193.582 34.2993C193.582 34.1868 193.521 34.0842 193.373 34.0611C188.897 33.3514 184.235 34.0032 180.169 35.9751C182.961 31.118 184.5 25.5363 184.758 19.9529C184.773 19.6337 184.389 19.5394 184.179 19.7131C179.588 23.518 175.143 27.7051 172.087 32.8815C169.197 37.7734 167.493 43.7935 168.85 49.4347C166.59 51.6102 164.548 53.9808 162.816 56.5781C162.894 52.889 162.864 49.2031 162.59 45.4958C163.634 42.2864 164.648 39.0191 164.793 35.6244C164.94 32.2496 164.282 28.7622 163.334 25.533C161.736 20.0985 158.295 14.3812 152.655 12.4506C152.654 12.4473 152.652 12.4456 152.65 12.4423C152.632 12.4109 152.599 12.4092 152.576 12.4224C152.563 12.4175 152.551 12.4125 152.538 12.4092C152.424 12.3712 152.339 12.5184 152.394 12.6044C152.379 12.6292 152.366 12.6557 152.358 12.6888C150.884 18.1398 151.051 23.9812 152.975 29.3016C153.974 32.0676 155.478 34.6004 156.97 37.1216C158.462 39.6444 159.9 42.2351 161.538 44.6736C161.779 47.6563 161.9 50.6474 161.918 53.6219C161.926 54.9238 161.89 56.2225 161.834 57.5195C161.226 55.301 160.384 53.1586 159.347 51.1106C159.121 42.6139 152.447 35.593 143.922 34.9842C143.729 34.9693 143.613 35.1744 143.649 35.3432C145.34 42.9944 151.059 49.754 158.576 52.1909C159.724 54.679 160.641 57.2663 161.412 59.9761C161.461 60.1531 161.572 60.2557 161.701 60.3004C161.61 62.0887 161.518 63.8754 161.493 65.667C161.483 66.3106 162.464 66.3073 162.49 65.667C162.593 63.2385 162.7 60.8215 162.772 58.4095C162.772 58.4078 162.773 58.4062 162.775 58.4045C164.906 55.124 167.432 52.1875 170.259 49.5505C180.061 49.4447 188.088 42.3509 194.03 35.1628C194.177 34.9858 194.096 34.7642 193.952 34.6649Z" fill="#DE0351"/>
<path d="M224.61 119.333C224.965 117.194 225.45 115.07 226.049 112.965C227.89 106.495 230.706 100.411 233.11 94.1458C233.164 94.1144 233.217 94.0797 233.274 94.0482C233.313 94.0267 233.343 94.0003 233.368 93.9688C233.452 93.9655 233.535 93.9606 233.618 93.9539C233.298 103.16 231.525 112.81 224.61 119.333ZM223.434 120.023C222.11 115.548 221.763 110.969 223.185 106.418C224.742 101.435 228.132 97.1799 232.569 94.4668C228.539 102.298 224.795 111.073 223.434 120.023ZM222.6 119.725C218.792 115.672 216.633 110.479 216.037 104.93C215.488 99.8119 216.179 94.6852 217.251 89.6758C217.418 92.197 217.763 94.7182 218.022 97.2262C218.312 100.045 218.601 102.866 218.922 105.683C219.475 110.552 220.318 115.353 222.6 119.725ZM217.438 88.8139C220.59 93.4328 222.539 98.5877 223.419 104.123C223.422 104.138 223.427 104.151 223.43 104.166C223.147 104.834 222.896 105.521 222.684 106.221C221.45 110.29 221.351 114.995 222.759 119.091C220.471 114.795 219.794 109.811 219.26 105.031C218.656 99.6564 218.327 94.1822 217.432 88.8437C217.433 88.8338 217.437 88.8239 217.438 88.8139ZM214.773 120.284C209.855 115.143 204.362 110.749 198.301 107.018C195.085 105.04 191.7 103.362 188.19 101.976C188.188 101.969 188.183 101.963 188.181 101.956C194.046 100.809 199.555 102.757 204.31 106.28C206.928 108.221 209.466 110.486 211.311 113.194C212.796 115.376 213.829 117.821 214.773 120.284ZM199.093 114.514C194.291 111.637 190.499 107.28 188.271 102.154C198.069 106.398 206.571 113.06 213.903 120.79C208.985 118.671 203.692 117.268 199.093 114.514ZM195.465 125.122C195.666 124.992 195.867 124.867 196.071 124.748C200.964 124.508 205.923 125.256 210.588 126.703C212.69 127.355 214.676 128.165 216.585 129.112C209.335 131.11 201.421 129.805 195.465 125.122ZM215.625 127.414C209.587 124.893 202.854 123.978 196.384 124.567C202.698 121.05 210.608 122.233 215.625 127.414ZM233.879 93.628C233.841 93.5619 233.773 93.5155 233.677 93.5271C233.571 93.5404 233.465 93.5553 233.36 93.5718C233.29 93.4841 233.179 93.4411 233.049 93.5139C229.096 95.7307 225.841 99.1303 223.87 103.198C223.053 97.6547 220.802 92.3211 217.544 87.7783C217.359 87.5186 216.998 87.6824 216.942 87.9471C215.695 93.7802 214.801 99.8185 215.61 105.777C216.373 111.407 218.767 117.189 223.326 120.777C222.899 123.882 222.765 127.009 223.015 130.119C220.788 127.176 218.484 124.301 215.971 121.561C214.803 118.397 213.572 115.204 211.585 112.448C209.61 109.708 206.93 107.377 204.185 105.433C199.563 102.156 193.321 99.8003 187.698 101.779C187.697 101.779 187.693 101.777 187.69 101.776C187.655 101.762 187.629 101.782 187.619 101.807C187.606 101.81 187.594 101.815 187.581 101.819C187.468 101.86 187.492 102.029 187.589 102.062C187.593 102.09 187.599 102.12 187.612 102.151C189.834 107.341 193.583 111.824 198.39 114.808C200.888 116.36 203.636 117.417 206.371 118.471C209.105 119.527 211.838 120.67 214.636 121.57C216.672 123.762 218.621 126.033 220.479 128.357C221.291 129.373 222.065 130.415 222.828 131.468C220.975 130.103 218.988 128.943 216.906 127.979C211.461 121.451 201.873 120.074 194.804 124.878C194.645 124.986 194.68 125.219 194.812 125.328C200.88 130.286 209.557 132.048 216.968 129.304C219.41 130.544 221.735 132.01 224.018 133.66C224.166 133.767 224.317 133.779 224.446 133.732C225.482 135.193 226.516 136.654 227.607 138.075C228.001 138.586 228.767 137.976 228.39 137.456C226.969 135.488 225.553 133.524 224.114 131.587V131.582C223.753 127.684 223.917 123.815 224.504 119.991C232.132 113.836 234.036 103.296 234.248 93.9705C234.253 93.7422 234.054 93.6181 233.879 93.628Z" fill="#DE0351"/>
<path d="M135.079 97.627C135.082 97.6188 135.087 97.6105 135.09 97.6039C137.883 91.2893 140.282 84.6538 141.691 77.8826C142.353 74.7046 142.745 71.4109 142.252 68.1932C145.958 78.5179 143.087 90.1991 135.079 97.627ZM135.095 82.0201C136.612 77.0587 139.349 72.7211 141.81 68.2114C142.067 74.4945 140.244 80.6156 138.287 86.5397C137.044 90.2934 135.612 93.9875 133.994 97.5972C133.641 92.353 133.537 87.1154 135.095 82.0201ZM122.526 94.7568C123.087 90.4754 124.888 86.4802 125.993 82.3278C126.235 84.7663 126.625 87.175 126.782 89.6234C126.953 92.2587 126.971 94.904 126.892 97.5427C126.817 100.037 126.678 102.527 126.483 105.015C126.402 106.059 126.284 107.108 126.17 108.16C123.768 103.983 121.877 99.7181 122.526 94.7568ZM130.864 94.6856C130.885 98.833 129.17 102.633 127.409 106.304C127.439 105.839 127.469 105.376 127.504 104.914C127.696 102.296 127.843 99.6718 127.861 97.0447C127.894 92.4589 127.797 87.5009 126.534 83.0309C128.976 86.4421 130.84 90.4406 130.864 94.6856ZM142.011 66.7539C141.91 66.6712 141.759 66.6596 141.675 66.8085C140.854 68.2743 140.027 69.7565 139.292 71.2736C137.226 74.7046 135.454 78.3591 134.326 82.1425C132.7 87.5985 132.988 93.253 133.42 98.8578C132.356 101.154 131.221 103.417 130.01 105.637C129.07 107.358 128.086 109.052 127.062 110.723C127.176 109.717 127.252 108.701 127.32 107.689C127.338 107.669 127.356 107.647 127.371 107.619C129.492 103.5 131.621 99.0498 131.446 94.3018C131.269 89.5456 128.93 85.2311 126.086 81.5387C125.97 81.3881 125.681 81.4196 125.629 81.6164C124.46 86.1559 122.403 90.5068 121.93 95.2101C121.429 100.181 123.381 104.63 126.117 108.655C125.977 109.995 125.854 111.336 125.833 112.67C125.833 112.672 125.834 112.673 125.834 112.675C125.203 113.659 124.559 114.637 123.897 115.603C123.533 116.139 124.357 116.721 124.724 116.184C128.427 110.764 131.681 105.043 134.422 99.0812C143.766 91.2512 147.041 78.2019 142.389 66.8962C142.317 66.7192 142.146 66.6944 142.011 66.7539Z" fill="#DE0351"/>
<path d="M201.032 78.7307C207.541 73.0811 214.328 66.8939 223.273 66.0502C220.305 69.1438 217.768 72.8578 214.163 75.2202C210.285 77.7629 205.56 78.4097 201.061 79.0152C201.052 78.9209 201.041 78.8266 201.032 78.7307ZM202.353 64.2702C203.871 58.485 206.502 53.2507 209.071 47.9072C209.359 53.3648 210.321 59.198 208.728 64.4968C207.206 69.5657 203.668 73.5741 200.978 78.0309C200.665 73.4054 201.165 68.7948 202.353 64.2702ZM196.096 61.2494C196.953 58.0648 199.199 56.0531 201.615 53.9802C203.828 52.0778 206.111 50.2282 208.273 48.2579C205.271 53.1994 202.894 58.705 201.413 64.2536C200.247 68.626 199.671 73.2416 200.041 77.7712C197.274 72.6742 194.494 67.1785 196.096 61.2494ZM221.907 65.6036C214.148 66.8294 207.699 71.9479 202.091 77.2964C203.309 75.6255 204.445 73.8736 205.557 72.1547C206.378 70.8858 207.158 69.5822 207.833 68.2306C212.047 65.9212 217.119 64.869 221.907 65.6036ZM201.363 81.5132C201.271 80.9127 201.196 80.3139 201.132 79.7133C205.608 79.1194 210.278 78.4461 214.181 76.0176C216.125 74.8082 217.734 73.1738 219.242 71.4682C220.803 69.703 222.35 67.8931 223.771 66.0089C223.809 66.0056 223.844 66.0023 223.882 65.9989C224.158 65.9807 224.259 65.6284 224.092 65.4629C224.069 65.415 224.016 65.3852 223.96 65.3918C223.951 65.3918 223.947 65.3885 223.938 65.3868C218.524 64.4058 213.139 64.9385 208.227 67.415C208.616 66.5664 208.963 65.6995 209.244 64.8045C210.07 62.1741 210.202 59.4246 210.138 56.6867C210.062 53.5021 209.885 50.3076 209.671 47.128C209.668 47.0751 209.653 47.0287 209.632 46.989C209.643 46.9791 209.655 46.9675 209.666 46.9559C209.741 46.8848 209.683 46.7756 209.605 46.7475C209.6 46.592 209.372 46.5126 209.268 46.6747C209.155 46.8468 209.046 47.0221 208.933 47.1958C205.951 49.4606 203.133 51.9802 200.271 54.3922C198.01 56.298 196.202 58.3543 195.442 61.2742C193.788 67.6533 196.991 73.9976 200.207 79.3345C200.309 80.1087 200.44 80.878 200.602 81.6423C200.693 82.0691 201.433 81.95 201.363 81.5132Z" fill="#DE0351"/>
<path d="M113.735 -5.16748C118.274 2.15789 123.298 9.84556 122.703 18.8137C120.125 15.3892 116.863 12.2923 115.106 8.35501C113.215 4.12158 113.329 -0.646194 113.45 -5.18402C113.545 -5.1774 113.64 -5.17409 113.735 -5.16748ZM127.798 -1.55608C133.267 0.864208 138.015 4.29694 142.882 7.68832C137.446 7.09938 131.535 7.11923 126.557 4.70225C121.798 2.3895 118.407 -1.74467 114.436 -5.10958C119.05 -4.67945 123.523 -3.45028 127.798 -1.55608ZM131.782 -7.25193C134.788 -5.89538 136.416 -3.35929 138.077 -0.644539C139.6 1.84688 141.063 4.39455 142.662 6.84296C138.265 3.08928 133.208 -0.135006 127.967 -2.48085C123.836 -4.33039 119.371 -5.63565 114.84 -5.99133C120.314 -7.91201 126.184 -9.77809 131.782 -7.25193ZM123.363 17.5349C123.391 9.67848 119.368 2.49703 114.98 -3.89199C116.438 -2.4246 117.985 -1.02173 119.505 0.349712C120.628 1.36216 121.79 2.33987 123.016 3.22328C124.624 7.74953 124.854 12.9259 123.363 17.5349ZM110.936 -5.28328C111.543 -5.27997 112.147 -5.25846 112.749 -5.22703C112.621 -0.712366 112.542 4.00578 114.315 8.24583C115.199 10.3568 116.557 12.2063 118 13.9665C119.493 15.7912 121.034 17.606 122.666 19.3116C122.663 19.348 122.662 19.3844 122.658 19.4208C122.632 19.6988 122.966 19.8526 123.155 19.7136C123.206 19.6988 123.244 19.6508 123.245 19.5945C123.247 19.5879 123.25 19.5813 123.254 19.573C125.085 14.3867 125.419 8.98531 123.758 3.73943C124.534 4.26055 125.333 4.74196 126.172 5.16216C128.637 6.39629 131.33 6.96372 134.045 7.3376C137.201 7.77104 140.383 8.10686 143.554 8.40299C143.609 8.40795 143.655 8.40134 143.698 8.38479C143.708 8.39968 143.718 8.41292 143.724 8.42615C143.784 8.50887 143.901 8.47247 143.94 8.39803C144.097 8.41788 144.209 8.20612 144.067 8.07709C143.916 7.93812 143.761 7.80247 143.605 7.66516C141.847 4.35815 139.809 1.17357 137.883 -2.03583C136.363 -4.57192 134.621 -6.6845 131.861 -7.89878C125.826 -10.5523 119.052 -8.40169 113.27 -6.07736C112.491 -6.10052 111.71 -6.09555 110.929 -6.05585C110.494 -6.03434 110.494 -5.28493 110.936 -5.28328Z" fill="#DE0351"/>
<path d="M236.039 34.5886C238.552 39.0867 239.587 44.4401 238.461 49.4792C237.227 45.2441 235.652 41.0884 233.41 37.3265C231.731 34.5125 229.719 31.9069 227.679 29.3476C225.727 26.8976 223.767 24.4426 221.742 22.0471C227.542 24.78 232.877 28.9291 236.039 34.5886ZM225.284 38.1288C222.908 33.1625 222.121 27.599 221.449 22.1761C225.226 27.374 229.466 32.2824 232.659 37.8774C235.058 42.0843 236.48 46.5957 237.786 51.1831C233.091 47.2955 227.989 43.7833 225.284 38.1288ZM221.155 21.1107C220.938 21.0115 220.721 21.2249 220.746 21.4383C221.424 27.2996 222.161 33.3627 224.836 38.7078C227.668 44.3723 232.95 48.1276 237.956 51.7919C238.315 53.0608 238.667 54.3363 239.033 55.6101C239.185 56.1494 240.108 55.8881 239.981 55.3388C239.627 53.8301 239.25 52.313 238.835 50.8026C240.408 45.2838 239.412 39.31 236.631 34.3338C233.221 28.2293 227.423 23.9578 221.155 21.1107Z" fill="#DE0351"/>
<path d="M167.361 108.699C169.874 113.197 170.91 118.55 169.783 123.589C168.549 119.354 166.974 115.199 164.732 111.437C163.053 108.623 161.041 106.017 159.002 103.458C157.05 101.008 155.089 98.5527 153.064 96.1572C158.864 98.8901 164.2 103.039 167.361 108.699ZM156.606 112.239C154.231 107.273 153.443 101.709 152.771 96.2862C156.548 101.484 160.788 106.393 163.981 111.987C166.38 116.194 167.803 120.706 169.108 125.293C164.413 121.406 159.311 117.893 156.606 112.239ZM152.477 95.2208C152.26 95.1216 152.044 95.335 152.068 95.5484C152.747 101.41 153.483 107.473 156.158 112.818C158.99 118.482 164.272 122.238 169.278 125.9C169.637 127.171 169.99 128.445 170.355 129.72C170.508 130.258 171.431 129.998 171.303 129.449C170.949 127.94 170.572 126.423 170.157 124.913C171.73 119.394 170.734 113.42 167.953 108.444C164.544 102.338 158.745 98.0679 152.477 95.2208Z" fill="#DE0351"/>
<path d="M306.483 49.0989C308.087 47.6398 309.783 46.2717 311.556 44.9912C317.012 41.0556 322.991 38.0215 328.758 34.5954C328.821 34.6037 328.886 34.6103 328.948 34.6202C328.991 34.6268 329.034 34.6252 329.071 34.6169C329.139 34.6632 329.208 34.7112 329.278 34.7592C323.324 41.7868 315.952 48.2635 306.483 49.0989ZM305.133 48.9103C306.865 44.5793 309.431 40.7694 313.366 38.0778C317.676 35.1314 322.973 33.894 328.134 34.511C320.119 38.1605 311.747 42.7297 305.133 48.9103ZM304.661 48.1626C304.183 42.6189 305.707 37.2059 308.676 32.4828C311.417 28.1237 315.136 24.5288 319.08 21.2599C317.651 23.3427 316.359 25.5346 315.007 27.6638C313.489 30.0576 311.967 32.4497 310.474 34.8584C307.892 39.024 305.581 43.3154 304.661 48.1626ZM319.762 20.699C319.375 26.2774 317.709 31.5332 314.973 36.4218C314.964 36.4367 314.959 36.4499 314.954 36.4632C314.316 36.8122 313.695 37.196 313.095 37.6129C309.604 40.0431 306.612 43.676 305.179 47.7606C306.046 42.9729 308.602 38.6402 311.143 34.5574C314.002 29.9666 317.133 25.4635 319.739 20.7189C319.747 20.7123 319.754 20.7057 319.762 20.699ZM298.173 43.7505C297.496 36.6683 295.908 29.8144 293.461 23.1309C292.164 19.5857 290.546 16.1728 288.651 12.9105L288.656 12.8873C293.971 15.6219 297.086 20.5634 298.636 26.2758C299.488 29.4223 300.077 32.7707 299.847 36.038C299.662 38.6733 298.957 41.2326 298.173 43.7505ZM289.44 29.5067C287.451 24.2724 287.175 18.5037 288.601 13.1007C293.663 22.5006 296.209 32.9973 297.175 43.6099C294.628 38.8967 291.344 34.5193 289.44 29.5067ZM280.02 35.5847C280.257 35.6079 280.493 35.6343 280.728 35.6658C284.717 38.5112 288.144 42.1689 290.91 46.1972C292.156 48.0104 293.213 49.8765 294.125 51.8037C287.196 48.8789 281.792 42.9514 280.02 35.5847ZM294.424 49.8748C291.245 44.1558 286.526 39.2639 281.084 35.7187C288.22 36.8701 293.695 42.6983 294.424 49.8748ZM329.683 34.6649C329.694 34.5888 329.671 34.511 329.589 34.4614C329.496 34.4052 329.403 34.3506 329.312 34.2993C329.312 34.1868 329.249 34.0842 329.102 34.0611C324.627 33.3514 319.965 34.0032 315.899 35.9751C318.692 31.118 320.228 25.5363 320.488 19.9529C320.503 19.6337 320.119 19.5394 319.909 19.7131C315.318 23.518 310.873 27.7051 307.816 32.8815C304.928 37.7734 303.224 43.7935 304.58 49.4347C302.32 51.6102 300.279 53.9808 298.547 56.5781C298.625 52.889 298.595 49.2031 298.32 45.4958C299.364 42.2864 300.378 39.0191 300.524 35.6244C300.671 32.2496 300.013 28.7622 299.065 25.533C297.466 20.0985 294.025 14.3812 288.386 12.4506C288.384 12.4473 288.383 12.4456 288.381 12.4423C288.363 12.4109 288.33 12.4092 288.306 12.4224C288.293 12.4175 288.282 12.4125 288.268 12.4092C288.154 12.3712 288.07 12.5184 288.124 12.6044C288.11 12.6292 288.096 12.6557 288.086 12.6888C286.614 18.1398 286.781 23.9812 288.705 29.3016C289.704 32.0676 291.208 34.6004 292.699 37.1216C294.193 39.6444 295.629 42.2351 297.268 44.6736C297.51 47.6563 297.63 50.6474 297.648 53.6219C297.657 54.9238 297.619 56.2225 297.564 57.5195C296.957 55.301 296.113 53.1586 295.078 51.1106C294.851 42.6139 288.177 35.593 279.651 34.9842C279.459 34.9693 279.343 35.1744 279.38 35.3432C281.07 42.9944 286.789 49.754 294.307 52.1909C295.455 54.679 296.371 57.2663 297.141 59.9761C297.192 60.1531 297.303 60.2557 297.432 60.3004C297.341 62.0887 297.248 63.8754 297.223 65.667C297.213 66.3106 298.193 66.3073 298.221 65.667C298.323 63.2385 298.431 60.8215 298.502 58.4095C298.502 58.4078 298.504 58.4062 298.505 58.4045C300.635 55.124 303.162 52.1875 305.99 49.5505C315.792 49.4447 323.818 42.3509 329.761 35.1628C329.906 34.9858 329.827 34.7642 329.683 34.6649Z" fill="#DE0351"/>
<path d="M270.813 97.627C270.817 97.6188 270.82 97.6105 270.825 97.6039C273.617 91.2893 276.014 84.6538 277.424 77.8826C278.086 74.7046 278.479 71.4109 277.986 68.1932C281.692 78.5179 278.82 90.1991 270.813 97.627ZM270.83 82.0201C272.347 77.0587 275.083 72.7211 277.545 68.2114C277.801 74.4945 275.978 80.6156 274.019 86.5397C272.779 90.2934 271.346 93.9875 269.728 97.5972C269.374 92.353 269.271 87.1154 270.83 82.0201ZM258.26 94.7568C258.821 90.4754 260.623 86.4802 261.726 82.3278C261.968 84.7663 262.36 87.175 262.517 89.6234C262.687 92.2587 262.704 94.904 262.626 97.5427C262.552 100.037 262.413 102.527 262.217 105.015C262.136 106.059 262.019 107.108 261.905 108.16C259.503 103.983 257.612 99.7181 258.26 94.7568ZM266.596 94.6856C266.62 98.833 264.904 102.633 263.144 106.304C263.174 105.839 263.203 105.376 263.238 104.914C263.43 102.296 263.577 99.6718 263.595 97.0447C263.627 92.4589 263.531 87.5009 262.269 83.0309C264.71 86.4421 266.575 90.4406 266.596 94.6856ZM277.745 66.7539C277.644 66.6712 277.493 66.6596 277.409 66.8085C276.589 68.2743 275.761 69.7565 275.027 71.2736C272.961 74.7046 271.189 78.3591 270.059 82.1425C268.433 87.5985 268.722 93.253 269.154 98.8578C268.09 101.154 266.955 103.417 265.744 105.637C264.805 107.358 263.82 109.052 262.796 110.723C262.911 109.717 262.987 108.701 263.054 107.689C263.073 107.669 263.091 107.647 263.106 107.619C265.227 103.5 267.354 99.0498 267.18 94.3018C267.003 89.5456 264.664 85.2311 261.82 81.5387C261.705 81.3881 261.413 81.4196 261.364 81.6164C260.194 86.1559 258.138 90.5068 257.665 95.2101C257.163 100.181 259.115 104.63 261.852 108.655C261.711 109.995 261.587 111.336 261.567 112.67V112.675C260.935 113.659 260.292 114.637 259.632 115.603C259.266 116.139 260.092 116.721 260.459 116.184C264.16 110.764 267.414 105.043 270.156 99.0812C279.5 91.2512 282.776 78.2019 278.124 66.8962C278.051 66.7192 277.881 66.6944 277.745 66.7539Z" fill="#DE0351"/>
<path d="M249.465 -5.16748C254.004 2.15789 259.028 9.84556 258.435 18.8137C255.854 15.3892 252.595 12.2923 250.836 8.35501C248.947 4.12158 249.061 -0.646194 249.18 -5.18402C249.276 -5.1774 249.371 -5.17409 249.465 -5.16748ZM263.53 -1.55608C268.999 0.864208 273.747 4.29694 278.612 7.68832C273.178 7.09938 267.267 7.11923 262.289 4.70225C257.528 2.3895 254.135 -1.74467 250.166 -5.10958C254.782 -4.67945 259.253 -3.45028 263.53 -1.55608ZM267.512 -7.25193C270.518 -5.89538 272.147 -3.35929 273.808 -0.644539C275.33 1.84688 276.794 4.39455 278.392 6.84296C273.994 3.08928 268.938 -0.135006 263.697 -2.48085C259.566 -4.33039 255.101 -5.63565 250.57 -5.99133C256.044 -7.91201 261.912 -9.77809 267.512 -7.25193ZM259.093 17.5349C259.123 9.67848 255.098 2.49703 250.712 -3.89199C252.168 -2.4246 253.715 -1.02173 255.235 0.349712C256.357 1.36216 257.52 2.33987 258.746 3.22328C260.354 7.74953 260.585 12.9259 259.093 17.5349ZM246.667 -5.28328C247.274 -5.27997 247.877 -5.25846 248.479 -5.22703C248.351 -0.712366 248.272 4.00578 250.047 8.24583C250.929 10.3568 252.287 12.2063 253.73 13.9665C255.224 15.7912 256.764 17.606 258.397 19.3116C258.393 19.348 258.392 19.3844 258.39 19.4208C258.363 19.6988 258.694 19.8526 258.883 19.7136C258.936 19.6988 258.974 19.6508 258.976 19.5945C258.979 19.5879 258.982 19.5813 258.985 19.573C260.815 14.3867 261.149 8.98531 259.488 3.73943C260.263 4.26055 261.065 4.74196 261.904 5.16216C264.369 6.39629 267.062 6.96372 269.775 7.3376C272.931 7.77104 276.113 8.10686 279.284 8.40299C279.34 8.40795 279.387 8.40134 279.428 8.38479C279.438 8.39968 279.446 8.41292 279.456 8.42615C279.514 8.50887 279.632 8.47247 279.671 8.39803C279.828 8.41788 279.941 8.20612 279.799 8.07709C279.646 7.93812 279.489 7.80247 279.337 7.66516C277.577 4.35815 275.54 1.17357 273.615 -2.03583C272.094 -4.57192 270.352 -6.6845 267.59 -7.89878C261.558 -10.5523 254.783 -8.40169 249.002 -6.07736C248.221 -6.10052 247.44 -6.09555 246.661 -6.05585C246.224 -6.03434 246.224 -5.28493 246.667 -5.28328Z" fill="#DE0351"/>
<path d="M303.094 108.699C305.607 113.197 306.641 118.55 305.516 123.589C304.281 119.354 302.707 115.199 300.463 111.437C298.786 108.623 296.774 106.017 294.734 103.458C292.781 101.008 290.82 98.5527 288.797 96.1572C294.597 98.8901 299.932 103.039 303.094 108.699ZM292.339 112.239C289.963 107.273 289.176 101.709 288.502 96.2862C292.281 101.484 296.521 106.393 299.712 111.987C302.113 116.194 303.535 120.706 304.839 125.293C300.146 121.406 295.044 117.893 292.339 112.239ZM288.21 95.2208C287.993 95.1216 287.775 95.335 287.801 95.5484C288.478 101.41 289.215 107.473 291.891 112.818C294.723 118.482 300.003 122.238 305.011 125.9C305.37 127.171 305.722 128.445 306.088 129.72C306.24 130.258 307.163 129.998 307.036 129.449C306.682 127.94 306.305 126.423 305.888 124.913C307.461 119.394 306.467 113.42 303.686 108.444C300.275 102.338 294.478 98.0679 288.21 95.2208Z" fill="#DE0351"/>
<path d="M170.752 195.811C172.358 194.352 174.053 192.986 175.826 191.705C181.282 187.768 187.261 184.734 193.028 181.308C193.092 181.318 193.155 181.323 193.218 181.332C193.263 181.339 193.304 181.337 193.34 181.329C193.41 181.377 193.478 181.423 193.547 181.471C187.593 188.499 180.222 194.976 170.752 195.811ZM169.402 195.623C171.134 191.292 173.7 187.482 177.636 184.79C181.945 181.845 187.242 180.606 192.404 181.223C184.39 184.874 176.016 189.442 169.402 195.623ZM168.931 194.875C168.453 189.331 169.976 183.918 172.946 179.195C175.687 174.838 179.406 171.241 183.35 167.972C181.922 170.057 180.63 172.247 179.277 174.376C177.758 176.77 176.238 179.164 174.744 181.572C172.162 185.736 169.851 190.028 168.931 194.875ZM184.031 167.411C183.644 172.991 181.98 178.246 179.242 183.134C179.234 183.149 179.229 183.162 179.224 183.175C178.585 183.524 177.965 183.908 177.364 184.325C173.875 186.755 170.881 190.388 169.45 194.474C170.315 189.685 172.871 185.353 175.412 181.27C178.271 176.679 181.403 172.176 184.008 167.431C184.017 167.425 184.023 167.418 184.031 167.411ZM162.442 190.463C161.766 183.381 160.178 176.527 157.731 169.843C156.434 166.298 154.816 162.885 152.92 159.623C152.922 159.614 152.923 159.608 152.927 159.6C158.24 162.334 161.356 167.276 162.906 172.988C163.758 176.135 164.347 179.483 164.117 182.75C163.931 185.386 163.227 187.945 162.442 190.463ZM153.709 176.219C151.721 170.986 151.444 165.216 152.87 159.813C157.933 169.215 160.479 179.71 161.445 190.322C158.897 185.609 155.613 181.232 153.709 176.219ZM144.289 182.297C144.526 182.32 144.763 182.347 144.998 182.38C148.986 185.223 152.414 188.881 155.18 192.909C156.426 194.723 157.483 196.589 158.394 198.516C151.466 195.591 146.063 189.664 144.289 182.297ZM158.694 196.587C155.516 190.868 150.796 185.976 145.353 182.431C152.49 183.582 157.966 189.411 158.694 196.587ZM193.952 181.377C193.964 181.301 193.943 181.223 193.858 181.174C193.767 181.117 193.675 181.063 193.582 181.012C193.582 180.899 193.521 180.796 193.373 180.773C188.897 180.064 184.235 180.715 180.169 182.687C182.961 177.83 184.5 172.25 184.758 166.665C184.773 166.346 184.389 166.252 184.179 166.425C179.588 170.23 175.143 174.417 172.087 179.594C169.197 184.486 167.493 190.506 168.85 196.149C166.59 198.324 164.548 200.693 162.816 203.29C162.894 199.601 162.864 195.915 162.59 192.208C163.634 188.999 164.648 185.731 164.793 182.337C164.94 178.962 164.282 175.475 163.334 172.245C161.736 166.811 158.295 161.093 152.655 159.163C152.654 159.16 152.652 159.158 152.65 159.155C152.632 159.123 152.599 159.121 152.576 159.135C152.563 159.131 152.551 159.126 152.538 159.121C152.424 159.083 152.339 159.231 152.394 159.317C152.379 159.341 152.366 159.368 152.358 159.401C150.884 164.852 151.051 170.694 152.975 176.014C153.974 178.78 155.478 181.313 156.97 183.834C158.462 186.357 159.9 188.947 161.538 191.386C161.779 194.369 161.9 197.36 161.918 200.334C161.926 201.636 161.89 202.935 161.834 204.232C161.226 202.013 160.384 199.871 159.347 197.825C159.121 189.326 152.447 182.305 143.922 181.696C143.729 181.682 143.613 181.887 143.649 182.055C145.34 189.707 151.059 196.466 158.576 198.903C159.724 201.391 160.641 203.979 161.412 206.688C161.461 206.865 161.572 206.968 161.701 207.013C161.61 208.801 161.518 210.588 161.493 212.379C161.483 213.024 162.464 213.02 162.49 212.379C162.593 209.951 162.7 207.534 162.772 205.122C162.772 205.12 162.773 205.118 162.775 205.117C164.906 201.836 167.432 198.9 170.259 196.263C180.061 196.157 188.088 189.063 194.03 181.875C194.177 181.698 194.096 181.476 193.952 181.377Z" fill="#DE0351"/>
<path d="M224.61 266.044C224.965 263.905 225.45 261.781 226.049 259.676C227.89 253.206 230.706 247.122 233.11 240.858C233.164 240.827 233.217 240.792 233.274 240.761C233.313 240.739 233.343 240.711 233.368 240.681C233.452 240.676 233.535 240.671 233.618 240.665C233.298 249.873 231.525 259.523 224.61 266.044ZM223.434 266.734C222.11 262.26 221.763 257.68 223.185 253.129C224.742 248.147 228.132 243.892 232.569 241.179C228.539 249.009 224.795 257.786 223.434 266.734ZM222.6 266.438C218.792 262.383 216.633 257.19 216.037 251.643C215.488 246.523 216.179 241.396 217.251 236.387C217.418 238.908 217.763 241.429 218.022 243.939C218.312 246.758 218.601 249.578 218.922 252.394C219.475 257.263 220.318 262.065 222.6 266.438ZM217.438 235.525C220.59 240.144 222.539 245.3 223.419 250.836C223.422 250.849 223.427 250.864 223.43 250.877C223.147 251.547 222.896 252.232 222.684 252.932C221.45 257.003 221.351 261.708 222.759 265.802C220.471 261.506 219.794 256.523 219.26 251.744C218.656 246.367 218.327 240.893 217.432 235.556C217.433 235.545 217.437 235.535 217.438 235.525ZM214.773 266.995C209.855 261.855 204.362 257.461 198.301 253.731C195.085 251.751 191.7 250.075 188.19 248.688C188.188 248.682 188.183 248.673 188.181 248.667C194.046 247.52 199.555 249.468 204.31 252.991C206.928 254.933 209.466 257.198 211.311 259.905C212.796 262.087 213.829 264.534 214.773 266.995ZM199.093 261.227C194.291 258.35 190.499 253.992 188.271 248.867C198.069 253.11 206.571 259.771 213.903 267.503C208.985 265.384 203.692 263.981 199.093 261.227ZM195.465 271.834C195.666 271.703 195.867 271.579 196.071 271.459C200.964 271.22 205.923 271.966 210.588 273.414C212.69 274.067 214.676 274.878 216.585 275.824C209.335 277.821 201.421 276.516 195.465 271.834ZM215.625 274.127C209.587 271.606 202.854 270.691 196.384 271.278C202.698 267.761 210.608 268.944 215.625 274.127ZM233.879 240.339C233.841 240.274 233.773 240.228 233.677 240.238C233.571 240.253 233.465 240.266 233.36 240.283C233.29 240.195 233.179 240.154 233.049 240.226C229.096 242.443 225.841 245.843 223.87 249.909C223.053 244.367 220.802 239.034 217.544 234.489C217.359 234.231 216.998 234.393 216.942 234.66C215.695 240.491 214.801 246.531 215.61 252.49C216.373 258.12 218.767 263.9 223.326 267.488C222.899 270.595 222.765 273.722 223.015 276.832C220.788 273.887 218.484 271.014 215.971 268.274C214.803 265.109 213.572 261.916 211.585 259.16C209.61 256.421 206.93 254.09 204.185 252.146C199.563 248.869 193.321 246.513 187.698 248.491C187.697 248.49 187.693 248.49 187.69 248.488C187.655 248.475 187.629 248.493 187.619 248.518C187.606 248.523 187.594 248.526 187.581 248.531C187.468 248.571 187.492 248.74 187.589 248.774C187.593 248.803 187.599 248.832 187.612 248.862C189.834 254.053 193.583 258.537 198.39 261.521C200.888 263.071 203.636 264.13 206.371 265.182C209.105 266.237 211.838 267.382 214.636 268.282C216.672 270.473 218.621 272.746 220.479 275.068C221.291 276.084 222.065 277.128 222.828 278.18C220.975 276.815 218.988 275.656 216.906 274.691C211.461 268.161 201.873 266.785 194.804 271.591C194.645 271.698 194.68 271.932 194.812 272.039C200.88 276.997 209.557 278.761 216.968 276.016C219.41 277.257 221.735 278.721 224.018 280.37C224.166 280.48 224.317 280.49 224.446 280.445C225.482 281.906 226.516 283.366 227.607 284.786C228.001 285.299 228.767 284.688 228.39 284.169C226.969 282.198 225.553 280.236 224.114 278.298V278.293C223.753 274.397 223.917 270.527 224.504 266.704C232.132 260.548 234.036 250.009 234.248 240.683C234.253 240.453 234.054 240.329 233.879 240.339Z" fill="#DE0351"/>
<path d="M201.032 225.444C207.541 219.794 214.328 213.607 223.273 212.763C220.305 215.857 217.768 219.569 214.163 221.933C210.285 224.474 205.56 225.123 201.061 225.728C201.052 225.634 201.041 225.538 201.032 225.444ZM202.353 210.983C203.871 205.198 206.502 199.964 209.071 194.62C209.359 200.078 210.321 205.909 208.728 211.21C207.206 216.279 203.668 220.287 200.978 224.742C200.665 220.118 201.165 215.506 202.353 210.983ZM196.096 207.961C196.953 204.778 199.199 202.764 201.615 200.691C203.828 198.791 206.111 196.939 208.273 194.971C205.271 199.911 202.894 205.418 201.413 210.967C200.247 215.339 199.671 219.954 200.041 224.484C197.274 219.387 194.494 213.891 196.096 207.961ZM221.907 212.316C214.148 213.542 207.699 218.659 202.091 224.009C203.309 222.338 204.445 220.586 205.557 218.866C206.378 217.597 207.158 216.295 207.833 214.942C212.047 212.634 217.119 211.58 221.907 212.316ZM201.363 228.226C201.271 227.626 201.196 227.025 201.132 226.426C205.608 225.832 210.278 225.157 214.181 222.73C216.125 221.521 217.734 219.885 219.242 218.181C220.803 216.414 222.35 214.604 223.771 212.72C223.809 212.718 223.844 212.713 223.882 212.712C224.158 212.692 224.259 212.341 224.092 212.176C224.069 212.128 224.016 212.096 223.96 212.105C223.951 212.103 223.947 212.1 223.938 212.098C218.524 211.119 213.139 211.651 208.227 214.128C208.616 213.279 208.963 212.412 209.244 211.517C210.07 208.887 210.202 206.138 210.138 203.4C210.062 200.213 209.885 197.019 209.671 193.841C209.668 193.786 209.653 193.74 209.632 193.702L209.666 193.667C209.741 193.598 209.683 193.487 209.605 193.46C209.6 193.303 209.372 193.224 209.268 193.386C209.155 193.558 209.046 193.733 208.933 193.909C205.951 196.172 203.133 198.691 200.271 201.103C198.01 203.011 196.202 205.067 195.442 207.987C193.788 214.366 196.991 220.711 200.207 226.047C200.309 226.82 200.44 227.591 200.602 228.355C200.693 228.782 201.433 228.663 201.363 228.226Z" fill="#DE0351"/>
<path d="M236.039 181.302C238.552 185.799 239.587 191.152 238.461 196.193C237.227 191.958 235.652 187.8 233.41 184.04C231.731 181.224 229.719 178.619 227.679 176.061C225.727 173.61 223.767 171.155 221.742 168.761C227.542 171.494 232.877 175.643 236.039 181.302ZM225.284 184.842C222.908 179.874 222.121 174.311 221.449 168.89C225.226 174.088 229.466 178.996 232.659 184.591C235.058 188.798 236.48 193.309 237.786 197.895C233.091 194.009 227.989 190.497 225.284 184.842ZM221.155 167.824C220.938 167.725 220.721 167.938 220.746 168.152C221.424 174.013 222.161 180.075 224.836 185.421C227.668 191.086 232.95 194.841 237.956 198.504C238.315 199.774 238.667 201.048 239.033 202.324C239.185 202.861 240.108 202.602 239.981 202.052C239.627 200.544 239.25 199.027 238.835 197.516C240.408 191.997 239.412 186.024 236.631 181.047C233.221 174.941 227.423 170.67 221.155 167.824Z" fill="#DE0351"/>
<path d="M306.483 195.811C308.087 194.352 309.783 192.986 311.556 191.705C317.012 187.768 322.991 184.734 328.758 181.308C328.821 181.318 328.886 181.323 328.948 181.332C328.991 181.339 329.034 181.337 329.071 181.329C329.139 181.377 329.208 181.423 329.278 181.471C323.324 188.499 315.952 194.976 306.483 195.811ZM305.133 195.623C306.865 191.292 309.431 187.482 313.366 184.79C317.676 181.845 322.973 180.606 328.134 181.223C320.119 184.874 311.747 189.442 305.133 195.623ZM304.661 194.875C304.183 189.331 305.707 183.918 308.676 179.195C311.417 174.838 315.136 171.241 319.08 167.972C317.651 170.057 316.359 172.247 315.007 174.376C313.489 176.77 311.967 179.164 310.474 181.572C307.892 185.736 305.581 190.028 304.661 194.875ZM319.762 167.411C319.375 172.991 317.709 178.246 314.973 183.134C314.964 183.149 314.959 183.162 314.954 183.175C314.316 183.524 313.695 183.908 313.095 184.325C309.604 186.755 306.612 190.388 305.179 194.474C306.046 189.685 308.602 185.353 311.143 181.27C314.002 176.679 317.133 172.176 319.739 167.431C319.747 167.425 319.754 167.418 319.762 167.411ZM298.173 190.463C297.496 183.381 295.908 176.527 293.461 169.843C292.164 166.298 290.546 162.885 288.651 159.623L288.656 159.6C293.971 162.334 297.086 167.276 298.636 172.988C299.488 176.135 300.077 179.483 299.847 182.75C299.662 185.386 298.957 187.945 298.173 190.463ZM289.44 176.219C287.451 170.986 287.175 165.216 288.601 159.813C293.663 169.215 296.209 179.71 297.175 190.322C294.628 185.609 291.344 181.232 289.44 176.219ZM280.02 182.297C280.257 182.32 280.493 182.347 280.728 182.38C284.717 185.223 288.144 188.881 290.91 192.909C292.156 194.723 293.213 196.589 294.125 198.516C287.196 195.591 281.792 189.664 280.02 182.297ZM294.424 196.587C291.245 190.868 286.526 185.976 281.084 182.431C288.22 183.582 293.695 189.411 294.424 196.587ZM329.683 181.377C329.694 181.301 329.671 181.223 329.589 181.174C329.496 181.117 329.403 181.063 329.312 181.012C329.312 180.899 329.249 180.796 329.102 180.773C324.627 180.064 319.965 180.715 315.899 182.687C318.692 177.83 320.228 172.25 320.488 166.665C320.503 166.346 320.119 166.252 319.909 166.425C315.318 170.23 310.873 174.417 307.816 179.594C304.928 184.486 303.224 190.506 304.58 196.149C302.32 198.324 300.279 200.693 298.547 203.29C298.625 199.601 298.595 195.915 298.32 192.208C299.364 188.999 300.378 185.731 300.524 182.337C300.671 178.962 300.013 175.475 299.065 172.245C297.466 166.811 294.025 161.093 288.386 159.163C288.384 159.16 288.383 159.158 288.381 159.155C288.363 159.123 288.33 159.121 288.306 159.135C288.293 159.131 288.282 159.126 288.268 159.121C288.154 159.083 288.07 159.231 288.124 159.317C288.11 159.341 288.096 159.368 288.086 159.401C286.614 164.852 286.781 170.694 288.705 176.014C289.704 178.78 291.208 181.313 292.699 183.834C294.193 186.357 295.629 188.947 297.268 191.386C297.51 194.369 297.63 197.36 297.648 200.334C297.657 201.636 297.619 202.935 297.564 204.232C296.957 202.013 296.113 199.871 295.078 197.825C294.851 189.326 288.177 182.305 279.651 181.696C279.459 181.682 279.343 181.887 279.38 182.055C281.07 189.707 286.789 196.466 294.307 198.903C295.455 201.391 296.371 203.979 297.141 206.688C297.192 206.865 297.303 206.968 297.432 207.013C297.341 208.801 297.248 210.588 297.223 212.379C297.213 213.024 298.193 213.02 298.221 212.379C298.323 209.951 298.431 207.534 298.502 205.122C298.502 205.12 298.504 205.118 298.505 205.117C300.635 201.836 303.162 198.9 305.99 196.263C315.792 196.157 323.818 189.063 329.761 181.875C329.906 181.698 329.827 181.476 329.683 181.377Z" fill="#DE0351"/>
<path d="M270.813 244.339C270.817 244.332 270.82 244.324 270.825 244.315C273.617 238.003 276.014 231.367 277.424 224.596C278.086 221.418 278.479 218.124 277.986 214.905C281.692 225.229 278.82 236.912 270.813 244.339ZM270.83 228.732C272.347 223.772 275.083 219.434 277.545 214.925C277.801 221.208 275.978 227.327 274.019 233.251C272.779 237.007 271.346 240.701 269.728 244.31C269.374 239.066 269.271 233.827 270.83 228.732ZM258.26 241.468C258.821 237.189 260.623 233.193 261.726 229.041C261.968 231.478 262.36 233.888 262.517 236.337C262.687 238.972 262.704 241.616 262.626 244.256C262.552 246.751 262.413 249.24 262.217 251.728C262.136 252.772 262.019 253.82 261.905 254.872C259.503 250.696 257.612 246.431 258.26 241.468ZM266.596 241.399C266.62 245.545 264.904 249.345 263.144 253.017C263.174 252.552 263.203 252.087 263.238 251.628C263.43 249.009 263.577 246.383 263.595 243.758C263.627 239.172 263.531 234.212 262.269 229.744C264.71 233.155 266.575 237.152 266.596 241.399ZM277.745 213.467C277.644 213.383 277.493 213.371 277.409 213.522C276.589 214.987 275.761 216.47 275.027 217.987C272.961 221.418 271.189 225.072 270.059 228.856C268.433 234.312 268.722 239.966 269.154 245.571C268.09 247.867 266.955 250.129 265.744 252.349C264.805 254.069 263.82 255.765 262.796 257.434C262.911 256.43 262.987 255.414 263.054 254.402C263.073 254.38 263.091 254.361 263.106 254.332C265.227 250.213 267.354 245.761 267.18 241.013C267.003 236.259 264.664 231.943 261.82 228.25C261.705 228.101 261.413 228.131 261.364 228.328C260.194 232.869 258.138 237.218 257.665 241.923C257.163 246.893 259.115 251.343 261.852 255.366C261.711 256.708 261.587 258.05 261.567 259.383V259.388C260.935 260.371 260.292 261.348 259.632 262.315C259.266 262.851 260.092 263.435 260.459 262.897C264.16 257.477 267.414 251.755 270.156 245.794C279.5 237.963 282.776 224.913 278.124 213.609C278.051 213.432 277.881 213.406 277.745 213.467Z" fill="#DE0351"/>
<path d="M249.465 141.545C254.004 148.87 259.028 156.559 258.435 165.526C255.854 162.101 252.595 159.005 250.836 155.067C248.947 150.834 249.061 146.066 249.18 141.528C249.276 141.535 249.371 141.538 249.465 141.545ZM263.53 145.156C268.999 147.576 273.747 151.009 278.612 154.401C273.178 153.812 267.267 153.831 262.289 151.414C257.528 149.102 254.135 144.969 250.166 141.603C254.782 142.033 259.253 143.262 263.53 145.156ZM267.512 139.46C270.518 140.817 272.147 143.353 273.808 146.068C275.33 148.559 276.794 151.107 278.392 153.555C273.994 149.801 268.938 146.577 263.697 144.231C259.566 142.382 255.101 141.077 250.57 140.721C256.044 138.8 261.912 136.934 267.512 139.46ZM259.093 164.247C259.123 156.392 255.098 149.209 250.712 142.82C252.168 144.288 253.715 145.69 255.235 147.062C256.357 148.074 257.52 149.052 258.746 149.935C260.354 154.462 260.585 159.638 259.093 164.247ZM246.667 141.429C247.274 141.432 247.877 141.454 248.479 141.487C248.351 146 248.272 150.718 250.047 154.958C250.929 157.071 252.287 158.92 253.73 160.679C255.224 162.503 256.764 164.32 258.397 166.024C258.393 166.06 258.392 166.097 258.39 166.133C258.363 166.411 258.694 166.565 258.883 166.428C258.936 166.411 258.974 166.363 258.976 166.308C258.979 166.3 258.982 166.294 258.985 166.285C260.815 161.099 261.149 155.698 259.488 150.452C260.263 150.973 261.065 151.454 261.904 151.874C264.369 153.108 267.062 153.678 269.775 154.05C272.931 154.483 276.113 154.819 279.284 155.115C279.34 155.12 279.387 155.114 279.428 155.099C279.438 155.112 279.446 155.125 279.456 155.138C279.514 155.223 279.632 155.185 279.671 155.11C279.828 155.13 279.941 154.918 279.799 154.789C279.646 154.65 279.489 154.515 279.337 154.377C277.577 151.07 275.54 147.886 273.615 144.678C272.094 142.14 270.352 140.028 267.59 138.813C261.558 136.162 254.783 138.311 249.002 140.635C248.221 140.612 247.44 140.617 246.661 140.656C246.224 140.678 246.224 141.427 246.667 141.429Z" fill="#DE0351"/>
<path d="M303.094 255.411C305.607 259.909 306.641 265.26 305.516 270.301C304.281 266.066 302.707 261.91 300.463 258.148C298.786 255.334 296.774 252.729 294.734 250.17C292.781 247.72 290.82 245.265 288.797 242.869C294.597 245.602 299.932 249.751 303.094 255.411ZM292.339 258.952C289.963 253.985 289.176 248.421 288.502 242.998C292.281 248.196 296.521 253.104 299.712 258.699C302.113 262.906 303.535 267.418 304.839 272.005C300.146 268.119 295.044 264.605 292.339 258.952ZM288.21 241.933C287.993 241.833 287.775 242.047 287.801 242.26C288.478 248.123 289.215 254.185 291.891 259.53C294.723 265.194 300.003 268.95 305.011 272.612C305.37 273.883 305.722 275.158 306.088 276.432C306.24 276.97 307.163 276.71 307.036 276.161C306.682 274.654 306.305 273.137 305.888 271.625C307.461 266.106 306.467 260.132 303.686 255.156C300.275 249.05 294.478 244.78 288.21 241.933Z" fill="#DE0351"/>
<path d="M80.9679 413.435C81.3236 411.296 81.8066 409.171 82.4072 407.067C84.2484 400.597 87.0624 394.512 89.4662 388.249C89.5208 388.218 89.5754 388.183 89.6316 388.151C89.6713 388.13 89.7011 388.102 89.7243 388.072C89.8086 388.067 89.893 388.062 89.9757 388.055C89.6548 397.263 87.8813 406.913 80.9679 413.435ZM79.7917 414.124C78.4682 409.651 78.1208 405.07 79.5435 400.519C81.1002 395.538 84.49 391.283 88.9252 388.57C84.8953 396.4 81.1532 405.176 79.7917 414.124ZM78.9579 413.828C75.1496 409.774 72.9907 404.581 72.3952 399.034C71.8459 393.913 72.5374 388.788 73.6078 383.777C73.7765 386.3 74.1206 388.82 74.3787 391.329C74.6699 394.148 74.9577 396.969 75.2787 399.785C75.8312 404.653 76.6766 409.456 78.9579 413.828ZM73.7964 382.915C76.9479 387.534 78.8967 392.691 79.7768 398.226C79.7801 398.24 79.785 398.254 79.7884 398.268C79.5055 398.938 79.254 399.623 79.0406 400.322C77.8081 404.394 77.7089 409.099 79.1167 413.193C76.8288 408.897 76.1521 403.914 75.6161 399.135C75.014 393.758 74.6847 388.284 73.7898 382.945C73.7914 382.935 73.7931 382.927 73.7964 382.915ZM71.1313 414.386C66.2129 409.246 60.7189 404.852 54.6591 401.121C51.4431 399.141 48.0583 397.465 44.5478 396.079C44.5445 396.071 44.5412 396.064 44.5396 396.057C50.4042 394.911 55.9131 396.858 60.6676 400.382C63.2864 402.324 65.8225 404.587 67.6671 407.295C69.1543 409.477 70.1866 411.924 71.1313 414.386ZM55.4515 408.617C50.6473 405.74 46.8573 401.383 44.6289 396.258C54.4275 400.501 62.9274 407.161 70.2611 414.894C65.3411 412.774 60.0506 411.372 55.4515 408.617ZM51.8236 419.225C52.0221 419.094 52.2256 418.97 52.4291 418.849C57.3226 418.611 62.2789 419.357 66.9458 420.805C69.0484 421.458 71.0336 422.269 72.9427 423.215C65.6935 425.212 57.7775 423.906 51.8236 419.225ZM71.9832 421.518C65.9449 418.996 59.2102 418.082 52.7417 418.669C59.0563 415.152 66.9656 416.335 71.9832 421.518ZM90.2355 387.731C90.1991 387.665 90.1312 387.619 90.0353 387.629C89.9294 387.642 89.8235 387.658 89.7176 387.673C89.6482 387.586 89.5357 387.544 89.4066 387.617C85.4528 389.832 82.1987 393.232 80.2284 397.3C79.4112 391.758 77.1596 386.424 73.9023 381.88C73.717 381.622 73.3563 381.784 73.3001 382.05C72.0527 387.882 71.1594 393.922 71.9667 399.881C72.7293 405.51 75.1231 411.291 79.6825 414.879C79.2573 417.986 79.1217 421.112 79.3731 424.222C77.1464 421.278 74.8403 418.404 72.329 415.665C71.161 412.5 69.9302 409.307 67.9417 406.551C65.9664 403.811 63.2881 401.48 60.5435 399.537C55.9213 396.259 49.6779 393.904 44.0565 395.882C44.0532 395.88 44.0499 395.88 44.0466 395.879C44.0135 395.866 43.987 395.884 43.9754 395.909C43.9638 395.914 43.9523 395.917 43.939 395.922C43.8249 395.962 43.8497 396.13 43.9473 396.165C43.9506 396.193 43.9556 396.223 43.9688 396.253C46.1906 401.444 49.9409 405.927 54.7484 408.912C57.2465 410.462 59.9943 411.52 62.7273 412.573C65.4635 413.628 68.1965 414.773 70.9923 415.673C73.0304 417.863 74.9792 420.136 76.8354 422.459C77.6493 423.475 78.4235 424.519 79.1845 425.571C77.3333 424.206 75.3448 423.046 73.2637 422.082C67.8193 415.552 58.2308 414.176 51.1618 418.98C51.003 419.089 51.0378 419.322 51.1701 419.43C57.2382 424.388 65.9151 426.151 73.3249 423.405C75.7683 424.648 78.091 426.112 80.374 427.761C80.5229 427.87 80.6751 427.88 80.8041 427.835C81.8381 429.296 82.8737 430.757 83.9655 432.176C84.3576 432.689 85.1236 432.079 84.748 431.559C83.3253 429.589 81.9109 427.627 80.4716 425.688C80.4716 425.687 80.4716 425.685 80.4716 425.683C80.111 421.787 80.2747 417.918 80.862 414.095C88.4885 407.939 90.3943 397.399 90.606 388.074C90.611 387.844 90.4108 387.72 90.2355 387.731Z" fill="#DE0351"/>
<path d="M170.752 343.201C172.358 341.742 174.053 340.374 175.826 339.095C181.282 335.158 187.261 332.125 193.028 328.696C193.092 328.706 193.155 328.712 193.218 328.722C193.263 328.729 193.304 328.727 193.34 328.717C193.41 328.765 193.478 328.815 193.547 328.861C187.593 335.889 180.222 342.366 170.752 343.201ZM169.402 343.014C171.134 338.683 173.7 334.872 177.636 332.18C181.945 329.235 187.242 327.996 192.404 328.615C184.39 332.264 176.016 336.832 169.402 343.014ZM168.931 342.265C168.453 336.721 169.976 331.31 172.946 326.585C175.687 322.226 179.406 318.629 183.35 315.362C181.922 317.446 180.63 319.637 179.277 321.766C177.758 324.16 176.238 326.554 174.744 328.962C172.162 333.126 169.851 337.418 168.931 342.265ZM184.031 314.801C183.644 320.38 181.98 325.635 179.242 330.526C179.234 330.539 179.229 330.552 179.224 330.564C178.585 330.914 177.965 331.298 177.364 331.717C173.875 334.145 170.881 337.778 169.45 341.863C170.315 337.075 172.871 332.744 175.412 328.661C178.271 324.069 181.403 319.566 184.008 314.823C184.017 314.814 184.023 314.808 184.031 314.801ZM162.442 337.854C161.766 330.77 160.178 323.918 157.731 317.235C156.434 313.688 154.816 310.277 152.92 307.013C152.922 307.004 152.923 306.998 152.927 306.989C158.24 309.724 161.356 314.667 162.906 320.378C163.758 323.525 164.347 326.873 164.117 330.14C163.931 332.776 163.227 335.335 162.442 337.854ZM153.709 323.609C151.721 318.375 151.444 312.606 152.87 307.201C157.933 316.604 160.479 327.1 161.445 337.712C158.897 333.001 155.613 328.621 153.709 323.609ZM144.289 329.687C144.526 329.71 144.763 329.737 144.998 329.77C148.986 332.613 152.414 336.271 155.18 340.298C156.426 342.113 157.483 343.979 158.394 345.906C151.466 342.979 146.063 337.052 144.289 329.687ZM158.694 343.979C155.516 338.258 150.796 333.368 145.353 329.821C152.49 330.971 157.966 336.802 158.694 343.979ZM193.952 328.765C193.964 328.691 193.943 328.613 193.858 328.564C193.767 328.507 193.675 328.454 193.582 328.401C193.582 328.289 193.521 328.186 193.373 328.163C188.897 327.454 184.235 328.105 180.169 330.077C182.961 325.222 184.5 319.64 184.758 314.055C184.773 313.736 184.389 313.642 184.179 313.815C179.588 317.62 175.143 321.806 172.087 326.984C169.197 331.876 167.493 337.897 168.85 343.537C166.59 345.714 164.548 348.083 162.816 350.68C162.894 346.99 162.864 343.305 162.59 339.598C163.634 336.39 164.648 333.121 164.793 329.727C164.94 326.352 164.282 322.863 163.334 319.637C161.736 314.202 158.295 308.485 152.655 306.553C152.654 306.551 152.652 306.548 152.65 306.544C152.632 306.513 152.599 306.511 152.576 306.525C152.563 306.52 152.551 306.515 152.538 306.511C152.424 306.473 152.339 306.621 152.394 306.705C152.379 306.731 152.366 306.758 152.358 306.789C150.884 312.24 151.051 318.083 152.975 323.404C153.974 326.17 155.478 328.703 156.97 331.224C158.462 333.747 159.9 336.337 161.538 338.776C161.779 341.76 161.9 344.75 161.918 347.724C161.926 349.026 161.89 350.325 161.834 351.622C161.226 349.403 160.384 347.261 159.347 345.214C159.121 336.716 152.447 329.695 143.922 329.086C143.729 329.073 143.613 329.277 143.649 329.445C145.34 337.097 151.059 343.856 158.576 346.293C159.724 348.781 160.641 351.369 161.412 354.078C161.461 354.257 161.572 354.358 161.701 354.403C161.61 356.191 161.518 357.979 161.493 359.769C161.483 360.413 162.464 360.408 162.49 359.769C162.593 357.342 162.7 354.925 162.772 352.512C162.772 352.51 162.773 352.51 162.775 352.508C164.906 349.226 167.432 346.29 170.259 343.651C180.061 343.547 188.088 336.453 194.03 329.265C194.177 329.088 194.096 328.868 193.952 328.765Z" fill="#DE0351"/>
<path d="M224.61 413.435C224.965 411.296 225.45 409.171 226.049 407.067C227.89 400.597 230.706 394.512 233.11 388.249C233.164 388.218 233.217 388.183 233.274 388.151C233.313 388.13 233.343 388.102 233.368 388.072C233.452 388.067 233.535 388.062 233.618 388.055C233.298 397.263 231.525 406.913 224.61 413.435ZM223.434 414.124C222.11 409.651 221.763 405.07 223.185 400.519C224.742 395.538 228.132 391.283 232.569 388.57C228.539 396.4 224.795 405.176 223.434 414.124ZM222.6 413.828C218.792 409.774 216.633 404.581 216.037 399.034C215.488 393.913 216.179 388.788 217.251 383.777C217.418 386.3 217.763 388.82 218.022 391.329C218.312 394.148 218.601 396.969 218.922 399.785C219.475 404.653 220.318 409.456 222.6 413.828ZM217.438 382.915C220.59 387.534 222.539 392.691 223.419 398.226C223.422 398.24 223.427 398.254 223.43 398.268C223.147 398.938 222.896 399.623 222.684 400.322C221.45 404.394 221.351 409.099 222.759 413.193C220.471 408.897 219.794 403.914 219.26 399.135C218.656 393.758 218.327 388.284 217.432 382.945C217.433 382.935 217.437 382.927 217.438 382.915ZM214.773 414.386C209.855 409.246 204.362 404.852 198.301 401.121C195.085 399.141 191.7 397.465 188.19 396.079C188.188 396.071 188.183 396.064 188.181 396.057C194.046 394.911 199.555 396.858 204.31 400.382C206.928 402.324 209.466 404.587 211.311 407.295C212.796 409.477 213.829 411.924 214.773 414.386ZM199.093 408.617C194.291 405.74 190.499 401.383 188.271 396.258C198.069 400.501 206.571 407.161 213.903 414.894C208.985 412.774 203.692 411.372 199.093 408.617ZM195.465 419.225C195.666 419.094 195.867 418.97 196.071 418.849C200.964 418.611 205.923 419.357 210.588 420.805C212.69 421.458 214.676 422.269 216.585 423.215C209.335 425.212 201.421 423.906 195.465 419.225ZM215.625 421.518C209.587 418.996 202.854 418.082 196.384 418.669C202.698 415.152 210.608 416.335 215.625 421.518ZM233.879 387.731C233.841 387.665 233.773 387.619 233.677 387.629C233.571 387.642 233.465 387.658 233.36 387.673C233.29 387.586 233.179 387.544 233.049 387.617C229.096 389.832 225.841 393.232 223.87 397.3C223.053 391.758 220.802 386.424 217.544 381.88C217.359 381.622 216.998 381.784 216.942 382.05C215.695 387.882 214.801 393.922 215.61 399.881C216.373 405.51 218.767 411.291 223.326 414.879C222.899 417.986 222.765 421.112 223.015 424.222C220.788 421.278 218.484 418.404 215.971 415.665C214.803 412.5 213.572 409.307 211.585 406.551C209.61 403.811 206.93 401.48 204.185 399.537C199.563 396.259 193.321 393.904 187.698 395.882C187.697 395.88 187.693 395.88 187.69 395.879C187.655 395.866 187.629 395.884 187.619 395.909C187.606 395.914 187.594 395.917 187.581 395.922C187.468 395.962 187.492 396.13 187.589 396.165C187.593 396.193 187.599 396.223 187.612 396.253C189.834 401.444 193.583 405.927 198.39 408.912C200.888 410.462 203.636 411.52 206.371 412.573C209.105 413.628 211.838 414.773 214.636 415.673C216.672 417.863 218.621 420.136 220.479 422.459C221.291 423.475 222.065 424.519 222.828 425.571C220.975 424.206 218.988 423.046 216.906 422.082C211.461 415.552 201.873 414.176 194.804 418.98C194.645 419.089 194.68 419.322 194.812 419.43C200.88 424.388 209.557 426.151 216.968 423.405C219.41 424.648 221.735 426.112 224.018 427.761C224.166 427.87 224.317 427.88 224.446 427.835C225.482 429.296 226.516 430.757 227.607 432.176C228.001 432.689 228.767 432.079 228.39 431.559C226.969 429.589 225.553 427.627 224.114 425.688V425.683C223.753 421.787 223.917 417.918 224.504 414.095C232.132 407.939 234.036 397.399 234.248 388.074C234.253 387.844 234.054 387.72 233.879 387.731Z" fill="#DE0351"/>
<path d="M135.079 391.729C135.082 391.723 135.087 391.714 135.09 391.706C137.883 385.393 140.282 378.756 141.691 371.985C142.353 368.808 142.745 365.515 142.252 362.297C145.958 372.62 143.087 384.303 135.079 391.729ZM135.095 376.122C136.612 371.161 139.349 366.825 141.81 362.315C142.067 368.598 140.244 374.719 138.287 380.642C137.044 384.396 135.612 388.091 133.994 391.701C133.641 386.455 133.537 381.218 135.095 376.122ZM122.526 388.859C123.087 384.579 124.888 380.584 125.993 376.432C126.235 378.87 126.625 381.279 126.782 383.727C126.953 386.363 126.971 389.006 126.892 391.646C126.817 394.14 126.678 396.631 126.483 399.119C126.402 400.161 126.284 401.21 126.17 402.262C123.768 398.087 121.877 393.822 122.526 388.859ZM130.864 388.789C130.885 392.935 129.17 396.735 127.409 400.408C127.439 399.943 127.469 399.478 127.504 399.017C127.696 396.398 127.843 393.774 127.861 391.149C127.894 386.563 127.797 381.605 126.534 377.135C128.976 380.546 130.84 384.543 130.864 388.789ZM142.011 360.858C141.91 360.773 141.759 360.762 141.675 360.912C140.854 362.378 140.027 363.859 139.292 365.376C137.226 368.808 135.454 372.463 134.326 376.246C132.7 381.702 132.988 387.357 133.42 392.962C132.356 395.258 131.221 397.519 130.01 399.739C129.07 401.46 128.086 403.156 127.062 404.825C127.176 403.821 127.252 402.805 127.32 401.792C127.338 401.771 127.356 401.751 127.371 401.721C129.492 397.604 131.621 393.152 131.446 388.404C131.269 383.648 128.93 379.335 126.086 375.641C125.97 375.492 125.681 375.522 125.629 375.719C124.46 380.26 122.403 384.609 121.93 389.314C121.429 394.283 123.381 398.734 126.117 402.757C125.977 404.099 125.854 405.44 125.833 406.774C125.833 406.775 125.834 406.777 125.834 406.779C125.203 407.761 124.559 408.739 123.897 409.705C123.533 410.241 124.357 410.825 124.724 410.287C128.427 404.868 131.681 399.146 134.422 393.185C143.766 385.353 147.041 372.304 142.389 361C142.317 360.823 142.146 360.798 142.011 360.858Z" fill="#DE0351"/>
<path d="M201.032 372.834C207.541 367.184 214.328 360.997 223.273 360.153C220.305 363.245 217.768 366.959 214.163 369.323C210.285 371.864 205.56 372.513 201.061 373.118C201.052 373.022 201.041 372.928 201.032 372.834ZM202.353 358.373C203.871 352.588 206.502 347.354 209.071 342.009C209.359 347.468 210.321 353.299 208.728 358.6C207.206 363.669 203.668 367.677 200.978 372.132C200.665 367.508 201.165 362.896 202.353 358.373ZM196.096 355.351C196.953 352.168 199.199 350.155 201.615 348.082C203.828 346.181 206.111 344.331 208.273 342.361C205.271 347.301 202.894 352.808 201.413 358.355C200.247 362.729 199.671 367.345 200.041 371.874C197.274 366.777 194.494 361.282 196.096 355.351ZM221.907 359.705C214.148 360.932 207.699 366.049 202.091 371.399C203.309 369.727 204.445 367.977 205.557 366.256C206.378 364.989 207.158 363.685 207.833 362.332C212.047 360.024 217.119 358.97 221.907 359.705ZM201.363 375.616C201.271 375.016 201.196 374.415 201.132 373.816C205.608 373.222 210.278 372.548 214.181 370.119C216.125 368.911 217.734 367.277 219.242 365.571C220.803 363.806 222.35 361.995 223.771 360.112C223.809 360.109 223.844 360.104 223.882 360.102C224.158 360.082 224.259 359.73 224.092 359.564C224.069 359.516 224.016 359.487 223.96 359.495C223.951 359.493 223.947 359.492 223.938 359.49C218.524 358.509 213.139 359.042 208.227 361.518C208.616 360.668 208.963 359.801 209.244 358.908C210.07 356.277 210.202 353.526 210.138 350.79C210.062 347.604 209.885 344.409 209.671 341.229C209.668 341.176 209.653 341.13 209.632 341.092C209.643 341.081 209.655 341.071 209.666 341.059C209.741 340.988 209.683 340.877 209.605 340.851C209.6 340.693 209.372 340.614 209.268 340.776C209.155 340.95 209.046 341.124 208.933 341.299C205.951 343.564 203.133 346.082 200.271 348.494C198.01 350.399 196.202 352.457 195.442 355.376C193.788 361.756 196.991 368.101 200.207 373.438C200.309 374.21 200.44 374.981 200.602 375.745C200.693 376.172 201.433 376.051 201.363 375.616Z" fill="#DE0351"/>
<path d="M236.039 328.692C238.552 333.188 239.587 338.542 238.461 343.582C237.227 339.346 235.652 335.192 233.41 331.43C231.731 328.614 229.719 326.01 227.679 323.451C225.727 321.001 223.767 318.544 221.742 316.15C227.542 318.883 232.877 323.032 236.039 328.692ZM225.284 332.232C222.908 327.266 222.121 321.7 221.449 316.278C225.226 321.477 229.466 326.384 232.659 331.98C235.058 336.187 236.48 340.699 237.786 345.285C233.091 341.399 227.989 337.886 225.284 332.232ZM221.155 315.214C220.938 315.115 220.721 315.328 220.746 315.541C221.424 321.403 222.161 327.466 224.836 332.811C227.668 338.475 232.95 342.231 237.956 345.893C238.315 347.164 238.667 348.438 239.033 349.712C239.185 350.251 240.108 349.99 239.981 349.442C239.627 347.933 239.25 346.416 238.835 344.906C240.408 339.387 239.412 333.413 236.631 328.437C233.221 322.331 227.423 318.059 221.155 315.214Z" fill="#DE0351"/>
<path d="M167.361 402.8C169.874 407.298 170.91 412.65 169.783 417.691C168.549 413.456 166.974 409.3 164.732 405.538C163.053 402.724 161.041 400.119 159.002 397.559C157.05 395.109 155.089 392.653 153.064 390.259C158.864 392.992 164.2 397.141 167.361 402.8ZM156.606 406.342C154.231 401.374 153.443 395.811 152.771 390.388C156.548 395.586 160.788 400.494 163.981 406.089C166.38 410.296 167.803 414.807 169.108 419.395C164.413 415.509 159.311 411.995 156.606 406.342ZM152.477 389.322C152.26 389.223 152.044 389.437 152.068 389.652C152.747 395.513 153.483 401.574 156.158 406.92C158.99 412.584 164.272 416.339 169.278 420.002C169.637 421.272 169.99 422.548 170.355 423.822C170.508 424.359 171.431 424.1 171.303 423.55C170.949 422.043 170.572 420.526 170.157 419.014C171.73 413.495 170.734 407.522 167.953 402.545C164.544 396.439 158.745 392.168 152.477 389.322Z" fill="#DE0351"/>
<path d="M306.483 343.201C308.087 341.742 309.783 340.374 311.556 339.095C317.012 335.158 322.991 332.125 328.758 328.696C328.821 328.706 328.886 328.712 328.948 328.722C328.991 328.729 329.034 328.727 329.071 328.717C329.139 328.765 329.208 328.815 329.278 328.861C323.324 335.889 315.952 342.366 306.483 343.201ZM305.133 343.014C306.865 338.683 309.431 334.872 313.366 332.18C317.676 329.235 322.973 327.996 328.134 328.615C320.119 332.264 311.747 336.832 305.133 343.014ZM304.661 342.265C304.183 336.721 305.707 331.31 308.676 326.585C311.417 322.226 315.136 318.629 319.08 315.362C317.651 317.446 316.359 319.637 315.007 321.766C313.489 324.16 311.967 326.554 310.474 328.962C307.892 333.126 305.581 337.418 304.661 342.265ZM319.762 314.801C319.375 320.38 317.709 325.635 314.973 330.526C314.964 330.539 314.959 330.552 314.954 330.564C314.316 330.914 313.695 331.298 313.095 331.717C309.604 334.145 306.612 337.778 305.179 341.863C306.046 337.075 308.602 332.744 311.143 328.661C314.002 324.069 317.133 319.566 319.739 314.823C319.747 314.814 319.754 314.808 319.762 314.801ZM298.173 337.854C297.496 330.77 295.908 323.918 293.461 317.235C292.164 313.688 290.546 310.277 288.651 307.013C288.652 307.004 288.654 306.998 288.656 306.989C293.971 309.724 297.086 314.667 298.636 320.378C299.488 323.525 300.077 326.873 299.847 330.14C299.662 332.776 298.957 335.335 298.173 337.854ZM289.44 323.609C287.451 318.375 287.175 312.606 288.601 307.201C293.663 316.604 296.209 327.1 297.175 337.712C294.628 333.001 291.344 328.621 289.44 323.609ZM280.02 329.687C280.257 329.71 280.493 329.737 280.728 329.77C284.717 332.613 288.144 336.271 290.91 340.298C292.156 342.113 293.213 343.979 294.125 345.906C287.196 342.979 281.792 337.052 280.02 329.687ZM294.424 343.979C291.245 338.258 286.526 333.368 281.084 329.821C288.22 330.971 293.695 336.802 294.424 343.979ZM329.683 328.765C329.694 328.691 329.671 328.613 329.589 328.564C329.496 328.507 329.403 328.454 329.312 328.401C329.312 328.289 329.249 328.186 329.102 328.163C324.627 327.454 319.965 328.105 315.899 330.077C318.692 325.222 320.228 319.64 320.488 314.055C320.503 313.736 320.119 313.642 319.909 313.815C315.318 317.62 310.873 321.806 307.816 326.984C304.928 331.876 303.224 337.897 304.58 343.537C302.32 345.714 300.279 348.083 298.547 350.68C298.625 346.99 298.595 343.305 298.32 339.598C299.364 336.39 300.378 333.121 300.524 329.727C300.671 326.352 300.013 322.863 299.065 319.637C297.466 314.202 294.025 308.485 288.386 306.553C288.384 306.551 288.383 306.548 288.381 306.544C288.363 306.513 288.33 306.511 288.306 306.525C288.293 306.52 288.282 306.515 288.268 306.511C288.154 306.473 288.07 306.621 288.124 306.705C288.11 306.731 288.096 306.758 288.086 306.789C286.614 312.24 286.781 318.083 288.705 323.404C289.704 326.17 291.208 328.703 292.699 331.224C294.193 333.747 295.629 336.337 297.268 338.776C297.51 341.76 297.63 344.75 297.648 347.724C297.657 349.026 297.619 350.325 297.564 351.622C296.957 349.403 296.113 347.261 295.078 345.214C294.851 336.716 288.177 329.695 279.651 329.086C279.459 329.073 279.343 329.277 279.38 329.445C281.07 337.097 286.789 343.856 294.307 346.293C295.455 348.781 296.371 351.369 297.141 354.078C297.192 354.257 297.303 354.358 297.432 354.403C297.341 356.191 297.248 357.979 297.223 359.769C297.213 360.413 298.193 360.408 298.221 359.769C298.323 357.342 298.431 354.925 298.502 352.512C298.502 352.51 298.504 352.51 298.505 352.508C300.635 349.226 303.162 346.29 305.99 343.651C315.792 343.547 323.818 336.453 329.761 329.265C329.906 329.088 329.827 328.868 329.683 328.765Z" fill="#DE0351"/>
<path d="M270.813 391.729C270.817 391.723 270.82 391.714 270.825 391.706C273.617 385.393 276.014 378.756 277.424 371.985C278.086 368.808 278.479 365.515 277.986 362.297C281.692 372.62 278.82 384.303 270.813 391.729ZM270.83 376.122C272.347 371.161 275.083 366.825 277.545 362.315C277.801 368.598 275.978 374.719 274.019 380.642C272.779 384.396 271.346 388.091 269.728 391.701C269.374 386.455 269.271 381.218 270.83 376.122ZM258.26 388.859C258.821 384.579 260.623 380.584 261.726 376.432C261.968 378.87 262.36 381.279 262.517 383.727C262.687 386.363 262.704 389.006 262.626 391.646C262.552 394.14 262.413 396.631 262.217 399.119C262.136 400.161 262.019 401.21 261.905 402.262C259.503 398.087 257.612 393.822 258.26 388.859ZM266.596 388.789C266.62 392.935 264.904 396.735 263.144 400.408C263.174 399.943 263.203 399.478 263.238 399.017C263.43 396.398 263.577 393.774 263.595 391.149C263.627 386.563 263.531 381.605 262.269 377.135C264.71 380.546 266.575 384.543 266.596 388.789ZM277.745 360.858C277.644 360.773 277.493 360.762 277.409 360.912C276.589 362.378 275.761 363.859 275.027 365.376C272.961 368.808 271.189 372.463 270.059 376.246C268.433 381.702 268.722 387.357 269.154 392.962C268.09 395.258 266.955 397.519 265.744 399.739C264.805 401.46 263.82 403.156 262.796 404.825C262.911 403.821 262.987 402.805 263.054 401.792C263.073 401.771 263.091 401.751 263.106 401.721C265.227 397.604 267.354 393.152 267.18 388.404C267.003 383.648 264.664 379.335 261.82 375.641C261.705 375.492 261.413 375.522 261.364 375.719C260.194 380.26 258.138 384.609 257.665 389.314C257.163 394.283 259.115 398.734 261.852 402.757C261.711 404.099 261.587 405.44 261.567 406.774V406.779C260.935 407.761 260.292 408.739 259.632 409.705C259.266 410.241 260.092 410.825 260.459 410.287C264.16 404.868 267.414 399.146 270.156 393.185C279.5 385.353 282.776 372.304 278.124 361C278.051 360.823 277.881 360.798 277.745 360.858Z" fill="#DE0351"/>
<path d="M249.465 288.934C254.004 296.26 259.028 303.947 258.435 312.914C255.854 309.491 252.595 306.394 250.836 302.457C248.947 298.223 249.061 293.456 249.18 288.916C249.276 288.923 249.371 288.926 249.465 288.934ZM263.53 292.546C268.999 294.966 273.747 298.4 278.612 301.79C273.178 301.201 267.267 301.221 262.289 298.804C257.528 296.491 254.135 292.357 250.166 288.992C254.782 289.422 259.253 290.652 263.53 292.546ZM267.512 286.85C270.518 288.206 272.147 290.743 273.808 293.457C275.33 295.947 276.794 298.496 278.392 300.945C273.994 297.191 268.938 293.967 263.697 291.621C259.566 289.771 255.101 288.466 250.57 288.11C256.044 286.19 261.912 284.324 267.512 286.85ZM259.093 311.637C259.123 303.782 255.098 296.6 250.712 290.21C252.168 291.677 253.715 293.08 255.235 294.452C256.357 295.464 257.52 296.442 258.746 297.325C260.354 301.853 260.585 307.028 259.093 311.637ZM246.667 288.819C247.274 288.822 247.877 288.843 248.479 288.876C248.351 293.389 248.272 298.108 250.047 302.348C250.929 304.46 252.287 306.31 253.73 308.068C255.224 309.893 256.764 311.709 258.397 313.413C258.393 313.45 258.392 313.486 258.39 313.523C258.363 313.799 258.694 313.954 258.883 313.815C258.936 313.799 258.974 313.753 258.976 313.698C258.979 313.69 258.982 313.683 258.985 313.675C260.815 308.487 261.149 303.087 259.488 297.843C260.263 298.362 261.065 298.842 261.904 299.262C264.369 300.496 267.062 301.067 269.775 301.441C272.931 301.873 276.113 302.207 279.284 302.505C279.34 302.51 279.387 302.503 279.428 302.487C279.438 302.501 279.446 302.515 279.456 302.528C279.514 302.612 279.632 302.574 279.671 302.498C279.828 302.52 279.941 302.308 279.799 302.179C279.646 302.04 279.489 301.904 279.337 301.767C277.577 298.46 275.54 295.277 273.615 292.068C272.094 289.53 270.352 287.416 267.59 286.203C261.558 283.549 254.783 285.7 249.002 288.023C248.221 288.003 247.44 288.006 246.661 288.046C246.224 288.067 246.224 288.817 246.667 288.819Z" fill="#DE0351"/>
<path d="M303.094 402.8C305.607 407.298 306.641 412.65 305.516 417.691C304.281 413.456 302.707 409.3 300.463 405.538C298.786 402.724 296.774 400.119 294.734 397.559C292.781 395.109 290.82 392.653 288.797 390.259C294.597 392.992 299.932 397.141 303.094 402.8ZM292.339 406.342C289.963 401.374 289.176 395.811 288.502 390.388C292.281 395.586 296.521 400.494 299.712 406.089C302.113 410.296 303.535 414.807 304.839 419.395C300.146 415.509 295.044 411.995 292.339 406.342ZM288.21 389.322C287.993 389.223 287.775 389.437 287.801 389.652C288.478 395.513 289.215 401.574 291.891 406.92C294.723 412.584 300.003 416.339 305.011 420.002C305.37 421.272 305.722 422.548 306.088 423.822C306.24 424.359 307.163 424.1 307.036 423.55C306.682 422.043 306.305 420.526 305.888 419.014C307.461 413.495 306.467 407.522 303.686 402.545C300.275 396.439 294.478 392.168 288.21 389.322Z" fill="#DE0351"/>
<path d="M27.11 489.912C28.7147 488.453 30.4104 487.085 32.1838 485.806C37.6398 481.869 43.6186 478.836 49.3856 475.407C49.4484 475.417 49.5129 475.423 49.5758 475.433C49.6205 475.442 49.6602 475.438 49.6982 475.428C49.7661 475.476 49.8355 475.526 49.905 475.572C43.9494 482.6 36.5777 489.077 27.11 489.912ZM25.7601 489.725C27.4922 485.394 30.058 481.582 33.9937 478.891C38.3016 475.946 43.5987 474.707 48.7619 475.326C40.7483 478.975 32.3724 483.543 25.7601 489.725ZM25.2886 488.976C24.8105 483.434 26.3341 478.021 29.3037 473.296C32.0449 468.937 35.7638 465.342 39.7077 462.073C38.2784 464.157 36.9864 466.348 35.6348 468.478C34.1161 470.871 32.5958 473.264 31.1019 475.673C28.5195 479.837 26.2084 484.13 25.2886 488.976ZM40.3893 461.512C40.0022 467.091 38.3379 472.346 35.5984 477.237C35.5918 477.25 35.5868 477.263 35.5818 477.276C34.9433 477.625 34.3229 478.009 33.7224 478.428C30.2317 480.856 27.2391 484.491 25.8064 488.574C26.6733 483.786 29.2292 479.455 31.7703 475.372C34.6273 470.78 37.7606 466.277 40.3662 461.534C40.3744 461.527 40.381 461.519 40.3893 461.512ZM18.8003 484.565C18.1237 477.481 16.5355 470.629 14.0888 463.946C12.7901 460.399 11.1739 456.988 9.278 453.724C9.27965 453.715 9.28131 453.709 9.28296 453.7C14.5967 456.435 17.7134 461.378 19.2635 467.089C20.1155 470.235 20.7028 473.585 20.4745 476.851C20.2892 479.486 19.5845 482.046 18.8003 484.565ZM10.0671 470.32C8.07861 465.085 7.80233 459.317 9.22837 453.914C14.2906 463.315 16.8366 473.81 17.8028 484.423C15.2534 479.711 11.9712 475.332 10.0671 470.32ZM0.645706 476.398C0.883929 476.421 1.1205 476.447 1.35376 476.48C5.34235 479.324 8.77177 482.982 11.5378 487.01C12.7835 488.823 13.8406 490.691 14.7522 492.617C7.82384 489.692 2.41915 483.763 0.645706 476.398ZM15.05 490.69C11.872 484.97 7.15384 480.079 1.71109 476.532C8.84622 477.683 14.322 483.513 15.05 490.69ZM50.3103 475.476C50.3219 475.402 50.2988 475.324 50.216 475.274C50.1234 475.218 50.0308 475.165 49.9381 475.112C49.9398 475 49.8769 474.897 49.7297 474.874C45.253 474.164 40.5928 474.816 36.5265 476.788C39.3173 471.933 40.8558 466.351 41.1139 460.766C41.1305 460.447 40.7467 460.352 40.5366 460.526C35.9441 464.331 31.5006 468.517 28.4434 473.695C25.5533 478.586 23.851 484.608 25.2059 490.248C22.9477 492.425 20.9063 494.794 19.1742 497.391C19.252 493.7 19.2222 490.016 18.9476 486.309C19.9914 483.101 21.0039 479.832 21.1511 476.437C21.2984 473.063 20.6399 469.574 19.6903 466.348C18.0923 460.913 14.6513 455.196 9.0133 453.265L9.00834 453.255C8.98849 453.224 8.95706 453.222 8.93224 453.235C8.92066 453.231 8.90908 453.226 8.89585 453.222C8.78004 453.184 8.69733 453.331 8.75192 453.417C8.73703 453.442 8.72214 453.469 8.71387 453.502C7.24152 458.951 7.4086 464.794 9.33259 470.115C10.3318 472.881 11.8339 475.413 13.3261 477.935C14.82 480.457 16.256 483.048 17.8937 485.487C18.1369 488.471 18.2577 491.46 18.2759 494.435C18.2842 495.737 18.2461 497.036 18.1915 498.333C17.5844 496.114 16.7407 493.972 15.7051 491.925C15.4768 483.427 8.8032 476.406 0.280098 475.797C0.0865414 475.784 -0.0309143 475.989 0.00713525 476.156C1.69786 483.808 7.41688 490.567 14.9341 493.004C16.0823 495.492 16.9988 498.079 17.768 500.789C17.8176 500.968 17.9301 501.069 18.0592 501.113C17.9665 502.902 17.8739 504.69 17.8507 506.482C17.8408 507.124 18.8202 507.12 18.8483 506.482C18.9509 504.053 19.0567 501.636 19.1279 499.223C19.1295 499.221 19.1312 499.221 19.1312 499.219C21.262 495.937 23.7898 493.001 26.617 490.362C36.4189 490.258 44.4457 483.166 50.3881 475.976C50.5353 475.799 50.4543 475.579 50.3103 475.476Z" fill="#DE0351"/>
<path d="M92.3961 475.404C94.9091 479.902 95.943 485.253 94.8181 490.294C93.5839 486.059 92.009 481.903 89.7674 478.142C88.0883 475.326 86.0766 472.722 84.0368 470.163C82.083 467.713 80.1243 465.256 78.0994 462.862C83.8995 465.595 89.2347 469.744 92.3961 475.404ZM81.6413 478.944C79.2657 473.978 78.4783 468.412 77.8066 462.99C81.5834 468.189 85.8251 473.096 89.0163 478.692C91.4151 482.899 92.8378 487.411 94.1414 491.997C89.4481 488.111 84.3462 484.598 81.6413 478.944ZM77.5121 461.926C77.2954 461.827 77.0787 462.04 77.1035 462.253C77.7818 468.115 78.518 474.178 81.193 479.523C84.0252 485.187 89.3075 488.943 94.3152 492.605C94.6725 493.876 95.0249 495.15 95.3905 496.424C95.5443 496.963 96.4658 496.701 96.3384 496.154C95.9844 494.645 95.6072 493.128 95.1919 491.618C96.7636 486.099 95.771 480.125 92.99 475.149C89.5788 469.043 83.7804 464.771 77.5121 461.926Z" fill="#DE0351"/>
<path d="M170.752 489.913C172.358 488.454 174.053 487.086 175.826 485.807C181.282 481.87 187.261 478.837 193.028 475.408C193.092 475.418 193.155 475.424 193.218 475.434C193.263 475.443 193.304 475.439 193.34 475.429C193.41 475.477 193.478 475.527 193.547 475.573C187.593 482.601 180.222 489.078 170.752 489.913ZM169.402 489.726C171.134 485.395 173.7 481.583 177.636 478.892C181.945 475.947 187.242 474.708 192.404 475.327C184.39 478.976 176.016 483.544 169.402 489.726ZM168.931 488.977C168.453 483.435 169.976 478.022 172.946 473.297C175.687 468.938 179.406 465.343 183.35 462.074C181.922 464.158 180.63 466.349 179.277 468.479C177.758 470.872 176.238 473.265 174.744 475.674C172.162 479.838 169.851 484.131 168.931 488.977ZM184.031 461.513C183.644 467.091 181.98 472.347 179.242 477.237C179.234 477.251 179.229 477.264 179.224 477.277C178.585 477.626 177.965 478.01 177.364 478.429C173.875 480.857 170.881 484.492 169.45 488.575C170.315 483.787 172.871 479.456 175.412 475.373C178.271 470.781 181.403 466.278 184.008 461.535C184.017 461.528 184.023 461.52 184.031 461.513ZM162.442 484.566C161.766 477.482 160.178 470.63 157.731 463.947C156.434 460.4 154.816 456.988 152.92 453.724C152.922 453.716 152.923 453.71 152.927 453.701C158.24 456.436 161.356 461.379 162.906 467.09C163.758 470.236 164.347 473.586 164.117 476.852C163.931 479.487 163.227 482.047 162.442 484.566ZM153.709 470.321C151.721 465.086 151.444 459.318 152.87 453.915C157.933 463.316 160.479 473.811 161.445 484.424C158.897 479.712 155.613 475.333 153.709 470.321ZM144.289 476.399C144.526 476.422 144.763 476.448 144.998 476.481C148.986 479.325 152.414 482.983 155.18 487.011C156.426 488.824 157.483 490.692 158.394 492.618C151.466 489.693 146.063 483.764 144.289 476.399ZM158.694 490.69C155.516 484.971 150.796 480.08 145.353 476.533C152.49 477.684 157.966 483.514 158.694 490.69ZM193.952 475.477C193.964 475.403 193.943 475.325 193.858 475.275C193.767 475.219 193.675 475.166 193.582 475.113C193.582 475.001 193.521 474.898 193.373 474.875C188.897 474.165 184.235 474.817 180.169 476.789C182.961 471.934 184.5 466.352 184.758 460.767C184.773 460.448 184.389 460.353 184.179 460.527C179.588 464.332 175.143 468.518 172.087 473.696C169.197 478.587 167.493 484.609 168.85 490.249C166.59 492.426 164.548 494.795 162.816 497.392C162.894 493.701 162.864 490.017 162.59 486.31C163.634 483.102 164.648 479.833 164.793 476.438C164.94 473.064 164.282 469.575 163.334 466.349C161.736 460.914 158.295 455.197 152.655 453.266L152.65 453.256C152.632 453.225 152.599 453.223 152.576 453.236C152.563 453.232 152.551 453.227 152.538 453.223C152.424 453.185 152.339 453.332 152.394 453.418C152.379 453.443 152.366 453.47 152.358 453.503C150.884 458.952 151.051 464.795 152.975 470.116C153.974 472.882 155.478 475.414 156.97 477.936C158.462 480.458 159.9 483.049 161.538 485.488C161.779 488.472 161.9 491.461 161.918 494.436C161.926 495.738 161.89 497.036 161.834 498.333C161.226 496.115 160.384 493.973 159.347 491.926C159.121 483.428 152.447 476.407 143.922 475.798C143.729 475.785 143.613 475.99 143.649 476.157C145.34 483.808 151.059 490.568 158.576 493.005C159.724 495.493 160.641 498.08 161.412 500.79C161.461 500.969 161.572 501.07 161.701 501.114C161.61 502.903 161.518 504.691 161.493 506.483C161.483 507.125 162.464 507.121 162.49 506.483C162.593 504.054 162.7 501.637 162.772 499.224C162.772 499.222 162.773 499.222 162.775 499.22C164.906 495.938 167.432 493.002 170.259 490.363C180.061 490.259 188.088 483.167 194.03 475.977C194.177 475.8 194.096 475.58 193.952 475.477Z" fill="#DE0351"/>
<path d="M113.735 435.646C118.274 442.971 123.298 450.659 122.703 459.627C120.125 456.203 116.863 453.106 115.106 449.168C113.215 444.935 113.329 440.167 113.45 435.629C113.545 435.636 113.64 435.639 113.735 435.646ZM127.798 439.257C133.267 441.678 138.015 445.112 142.882 448.502C137.446 447.913 131.535 447.933 126.557 445.516C121.798 443.203 118.407 439.069 114.436 435.704C119.05 436.134 123.523 437.363 127.798 439.257ZM131.782 433.562C134.788 434.918 136.416 437.454 138.077 440.169C139.6 442.66 141.063 445.208 142.662 447.656C138.265 443.903 133.208 440.678 127.967 438.333C123.836 436.483 119.371 435.178 114.84 434.822C120.314 432.901 126.184 431.035 131.782 433.562ZM123.363 458.348C123.391 450.494 119.368 443.312 114.98 436.921C116.438 438.389 117.985 439.792 119.505 441.163C120.628 442.176 121.79 443.153 123.016 444.037C124.624 448.565 124.854 453.739 123.363 458.348ZM110.936 435.53C111.543 435.534 112.147 435.555 112.749 435.588C112.621 440.101 112.542 444.819 114.315 449.059C115.199 451.172 116.557 453.021 118 454.78C119.493 456.605 121.034 458.421 122.666 460.125C122.663 460.162 122.662 460.198 122.658 460.234C122.632 460.512 122.966 460.666 123.155 460.527C123.206 460.511 123.244 460.466 123.245 460.41C123.247 460.401 123.25 460.395 123.254 460.386C125.085 455.199 125.419 449.799 123.758 444.555C124.534 445.074 125.333 445.555 126.172 445.974C128.637 447.21 131.33 447.779 134.045 448.153C137.201 448.585 140.383 448.919 143.554 449.216C143.609 449.221 143.655 449.215 143.698 449.198C143.708 449.213 143.718 449.226 143.724 449.24C143.784 449.324 143.901 449.286 143.94 449.21C144.097 449.231 144.209 449.02 144.067 448.891C143.916 448.752 143.761 448.616 143.605 448.479C141.847 445.172 139.809 441.989 137.883 438.779C136.363 436.242 134.621 434.127 131.861 432.915C125.826 430.261 119.052 432.412 113.27 434.736C112.491 434.715 111.71 434.718 110.929 434.758C110.494 434.779 110.494 435.529 110.936 435.53Z" fill="#DE0351"/>
<path d="M236.039 475.404C238.552 479.902 239.587 485.253 238.461 490.294C237.227 486.059 235.652 481.903 233.41 478.142C231.731 475.326 229.719 472.722 227.679 470.163C225.727 467.713 223.767 465.256 221.742 462.862C227.542 465.595 232.877 469.744 236.039 475.404ZM225.284 478.944C222.908 473.978 222.121 468.412 221.449 462.99C225.226 468.189 229.466 473.096 232.659 478.692C235.058 482.899 236.48 487.411 237.786 491.997C233.091 488.111 227.989 484.598 225.284 478.944ZM221.155 461.926C220.938 461.827 220.721 462.04 220.746 462.253C221.424 468.115 222.161 474.178 224.836 479.523C227.668 485.187 232.95 488.943 237.956 492.605C238.315 493.876 238.667 495.15 239.033 496.424C239.185 496.963 240.108 496.701 239.981 496.154C239.627 494.645 239.25 493.128 238.835 491.618C240.408 486.099 239.412 480.125 236.631 475.149C233.221 469.043 227.423 464.771 221.155 461.926Z" fill="#DE0351"/>
<path d="M306.483 489.913C308.087 488.454 309.783 487.086 311.556 485.807C317.012 481.87 322.991 478.837 328.758 475.408C328.821 475.418 328.886 475.424 328.948 475.434C328.991 475.443 329.034 475.439 329.071 475.429C329.139 475.477 329.208 475.527 329.278 475.573C323.324 482.601 315.952 489.078 306.483 489.913ZM305.133 489.726C306.865 485.395 309.431 481.583 313.366 478.892C317.676 475.947 322.973 474.708 328.134 475.327C320.119 478.976 311.747 483.544 305.133 489.726ZM304.661 488.977C304.183 483.435 305.707 478.022 308.676 473.297C311.417 468.938 315.136 465.343 319.08 462.074C317.651 464.158 316.359 466.349 315.007 468.479C313.489 470.872 311.967 473.265 310.474 475.674C307.892 479.838 305.581 484.131 304.661 488.977ZM319.762 461.513C319.375 467.091 317.709 472.347 314.973 477.237C314.964 477.251 314.959 477.264 314.954 477.277C314.316 477.626 313.695 478.01 313.095 478.429C309.604 480.857 306.612 484.492 305.179 488.575C306.046 483.787 308.602 479.456 311.143 475.373C314.002 470.781 317.133 466.278 319.739 461.535C319.747 461.528 319.754 461.52 319.762 461.513ZM298.173 484.566C297.496 477.482 295.908 470.63 293.461 463.947C292.164 460.4 290.546 456.988 288.651 453.724C288.652 453.716 288.654 453.71 288.656 453.701C293.971 456.436 297.086 461.379 298.636 467.09C299.488 470.236 300.077 473.586 299.847 476.852C299.662 479.487 298.957 482.047 298.173 484.566ZM289.44 470.321C287.451 465.086 287.175 459.318 288.601 453.915C293.663 463.316 296.209 473.811 297.175 484.424C294.628 479.712 291.344 475.333 289.44 470.321ZM280.02 476.399C280.257 476.422 280.493 476.448 280.728 476.481C284.717 479.325 288.144 482.983 290.91 487.011C292.156 488.824 293.213 490.692 294.125 492.618C287.196 489.693 281.792 483.764 280.02 476.399ZM294.424 490.69C291.245 484.971 286.526 480.08 281.084 476.533C288.22 477.684 293.695 483.514 294.424 490.69ZM329.683 475.477C329.694 475.403 329.671 475.325 329.589 475.275C329.496 475.219 329.403 475.166 329.312 475.113C329.312 475.001 329.249 474.898 329.102 474.875C324.627 474.165 319.965 474.817 315.899 476.789C318.692 471.934 320.228 466.352 320.488 460.767C320.503 460.448 320.119 460.353 319.909 460.527C315.318 464.332 310.873 468.518 307.816 473.696C304.928 478.587 303.224 484.609 304.58 490.249C302.32 492.426 300.279 494.795 298.547 497.392C298.625 493.701 298.595 490.017 298.32 486.31C299.364 483.102 300.378 479.833 300.524 476.438C300.671 473.064 300.013 469.575 299.065 466.349C297.466 460.914 294.025 455.197 288.386 453.266L288.381 453.256C288.363 453.225 288.33 453.223 288.306 453.236C288.293 453.232 288.282 453.227 288.268 453.223C288.154 453.185 288.07 453.332 288.124 453.418C288.11 453.443 288.096 453.47 288.086 453.503C286.614 458.952 286.781 464.795 288.705 470.116C289.704 472.882 291.208 475.414 292.699 477.936C294.193 480.458 295.629 483.049 297.268 485.488C297.51 488.472 297.63 491.461 297.648 494.436C297.657 495.738 297.619 497.036 297.564 498.333C296.957 496.115 296.113 493.973 295.078 491.926C294.851 483.428 288.177 476.407 279.651 475.798C279.459 475.785 279.343 475.99 279.38 476.157C281.07 483.808 286.789 490.568 294.307 493.005C295.455 495.493 296.371 498.08 297.141 500.79C297.192 500.969 297.303 501.07 297.432 501.114C297.341 502.903 297.248 504.691 297.223 506.483C297.213 507.125 298.193 507.121 298.221 506.483C298.323 504.054 298.431 501.637 298.502 499.224C298.502 499.222 298.504 499.222 298.505 499.22C300.635 495.938 303.162 493.002 305.99 490.363C315.792 490.259 323.818 483.167 329.761 475.977C329.906 475.8 329.827 475.58 329.683 475.477Z" fill="#DE0351"/>
<path d="M249.465 435.646C254.004 442.971 259.028 450.659 258.435 459.627C255.854 456.203 252.595 453.106 250.836 449.168C248.947 444.935 249.061 440.167 249.18 435.629C249.276 435.636 249.371 435.639 249.465 435.646ZM263.53 439.257C268.999 441.678 273.747 445.112 278.612 448.502C273.178 447.913 267.267 447.933 262.289 445.516C257.528 443.203 254.135 439.069 250.166 435.704C254.782 436.134 259.253 437.363 263.53 439.257ZM267.512 433.562C270.518 434.918 272.147 437.454 273.808 440.169C275.33 442.66 276.794 445.208 278.392 447.656C273.994 443.903 268.938 440.678 263.697 438.333C259.566 436.483 255.101 435.178 250.57 434.822C256.044 432.901 261.912 431.035 267.512 433.562ZM259.093 458.348C259.123 450.494 255.098 443.312 250.712 436.921C252.168 438.389 253.715 439.792 255.235 441.163C256.357 442.176 257.52 443.153 258.746 444.037C260.354 448.565 260.585 453.739 259.093 458.348ZM246.667 435.53C247.274 435.534 247.877 435.555 248.479 435.588C248.351 440.101 248.272 444.819 250.047 449.059C250.929 451.172 252.287 453.021 253.73 454.78C255.224 456.605 256.764 458.421 258.397 460.125C258.393 460.162 258.392 460.198 258.39 460.234C258.363 460.512 258.694 460.666 258.883 460.527C258.936 460.511 258.974 460.466 258.976 460.41C258.979 460.401 258.982 460.395 258.985 460.386C260.815 455.199 261.149 449.799 259.488 444.555C260.263 445.074 261.065 445.555 261.904 445.974C264.369 447.21 267.062 447.779 269.775 448.153C272.931 448.585 276.113 448.919 279.284 449.216C279.34 449.221 279.387 449.215 279.428 449.198C279.438 449.213 279.446 449.226 279.456 449.24C279.514 449.324 279.632 449.286 279.671 449.21C279.828 449.231 279.941 449.02 279.799 448.891C279.646 448.752 279.489 448.616 279.337 448.479C277.577 445.172 275.54 441.989 273.615 438.779C272.094 436.242 270.352 434.127 267.59 432.915C261.558 430.261 254.783 432.412 249.002 434.736C248.221 434.715 247.44 434.718 246.661 434.758C246.224 434.779 246.224 435.529 246.667 435.53Z" fill="#DE0351"/>
</svg>
